<svg width="20" height="20" viewBox="0 0 20 20" fill="none" xmlns="http://www.w3.org/2000/svg">
<path d="M15.7398 5.1274L12.5905 1.97551C12.5629 1.94799 12.5299 1.92601 12.493 1.91076C12.4917 1.91016 12.4901 1.90997 12.4885 1.90937C12.4548 1.8961 12.4184 1.88818 12.3802 1.88818H3.71779C3.55363 1.88818 3.42076 2.02106 3.42076 2.18522V17.6866C3.42076 17.8506 3.55363 17.9836 3.71779 17.9836H15.5721C15.736 17.9836 15.8691 17.8506 15.8691 17.6866V5.49294C15.8719 5.35433 15.8677 5.25116 15.7398 5.1274ZM12.6772 2.90245L14.901 5.12581L12.6772 5.15235V2.90245ZM15.275 17.3898H4.01482V2.48245H12.0831V5.45274C12.0831 5.53215 12.1148 5.60819 12.1713 5.66403C12.2277 5.71987 12.2996 5.7472 12.3835 5.74977L15.275 5.71532V17.3898Z" fill="#011627" stroke="#011627" stroke-width="0.8"/>
<path d="M10.7766 7.39627C10.7766 7.23211 10.6435 7.09924 10.4796 7.09924H8.44394C8.27978 7.09924 8.14691 7.23211 8.14691 7.39627V9.21922H6.40869C6.24454 9.21922 6.11166 9.3521 6.11166 9.51625V11.5519C6.11166 11.7159 6.24454 11.8489 6.40869 11.8489H8.14691V13.5022C8.14691 13.6662 8.27978 13.7992 8.44394 13.7992H10.4796C10.6435 13.7992 10.7766 13.6662 10.7766 13.5022V11.8489H12.515C12.679 11.8489 12.8121 11.7159 12.8121 11.5519V9.51625C12.8121 9.3521 12.679 9.21922 12.515 9.21922H10.7766V7.39627ZM12.218 9.81328V11.2549H10.4796C10.3156 11.2549 10.1826 11.388 10.1826 11.5519V13.2052H8.74097V11.5519C8.74097 11.388 8.6081 11.2549 8.44394 11.2549H6.70572V9.81328H8.44394C8.6081 9.81328 8.74097 9.68043 8.74097 9.51625V7.6933H10.1826V9.51625C10.1826 9.68043 10.3156 9.81328 10.4796 9.81328H12.218Z" fill="#011627" stroke="#011627" stroke-width="0.8"/>
</svg>
