<svg width="22" height="21" viewBox="0 0 22 21" fill="none" xmlns="http://www.w3.org/2000/svg">
<path d="M19.97 8.37109C19.9335 8.21624 19.7798 8.1206 19.6259 8.15743C19.4725 8.19446 19.3778 8.34991 19.4145 8.50476C19.5647 9.1408 19.641 9.81248 19.641 10.5014C19.641 15.4222 15.588 19.4256 10.6061 19.4256C5.62412 19.4256 1.57118 15.4222 1.57118 10.5014C1.57118 5.5802 5.62412 1.57663 10.6061 1.57663C12.5902 1.57663 14.4855 2.21069 16.0869 3.4103C16.2131 3.50515 16.3924 3.47842 16.4863 3.3505C16.5802 3.22258 16.5537 3.04199 16.4271 2.94713C14.7267 1.67307 12.7137 1 10.6061 1C5.30922 1 1 5.26218 1 10.5014C1 15.7402 5.30922 20.0024 10.6061 20.0024C15.9029 20.0024 20.2122 15.7402 20.2122 10.5014C20.2122 9.76773 20.1306 9.05109 19.97 8.37109Z" fill="#FDFFFC" stroke="#011627" stroke-width="0.8"/>
<path d="M10.4079 14.795C10.3322 14.795 10.2596 14.7647 10.2059 14.7107L4.8504 9.30296C4.73883 9.19029 4.73883 9.00772 4.8504 8.89504C4.96177 8.78237 5.14256 8.78237 5.25413 8.89504L10.3959 14.0869L20.1092 3.0996C20.2143 2.98079 20.3947 2.97049 20.5124 3.07663C20.63 3.18277 20.6402 3.36494 20.5353 3.48376L10.6208 14.6988C10.5684 14.758 10.4943 14.7929 10.4159 14.795C10.4131 14.795 10.4106 14.795 10.4079 14.795Z" fill="#FDFFFC" stroke="#011627" stroke-width="0.8"/>
</svg>
