<svg width="19" height="20" viewBox="0 0 19 20" fill="none" xmlns="http://www.w3.org/2000/svg">
<path d="M17.7247 6.41726L9.59326 1.04941C9.49346 0.983529 9.36356 0.983529 9.26375 1.04941L1.13228 6.41726C1.0497 6.47177 1 6.56373 1 6.66197C1 6.7602 1.0495 6.85216 1.13228 6.90667L2.36732 7.72197V12.0186C2.36732 12.1188 2.4188 12.2122 2.50395 12.2663L9.31564 16.5904C9.36455 16.6214 9.42019 16.6369 9.47603 16.6369C9.53445 16.6369 9.59306 16.6198 9.64336 16.5857L13.1972 14.1849V15.859L11.8733 18.481C11.8273 18.5722 11.8323 18.6806 11.8861 18.7673C11.9402 18.8537 12.036 18.9067 12.1388 18.9067H14.8495C14.9525 18.9067 15.0481 18.8537 15.1022 18.7673C15.156 18.6806 15.1612 18.5722 15.115 18.481L13.7911 15.859V13.7835L16.044 12.2616C16.1249 12.2069 16.1735 12.1159 16.1735 12.0186V7.9306L17.7245 6.90667C17.8071 6.85216 17.8568 6.7602 17.8568 6.66197C17.8568 6.56373 17.8073 6.47177 17.7247 6.41726ZM12.6196 18.3184L13.4942 16.5863L14.3689 18.3184H12.6196ZM9.47088 15.9902L2.96138 11.8578V8.11412L9.26375 12.2747C9.31365 12.3077 9.37108 12.3241 9.42851 12.3241C9.48593 12.3241 9.54336 12.3077 9.59326 12.2747L13.1972 9.8955V13.4728L9.47088 15.9902ZM15.5796 11.8633L13.7913 13.0716V9.50334L15.5796 8.32275V11.8633ZM15.7735 7.48785C15.7297 7.50393 15.6911 7.52962 15.6598 7.56295L13.4942 8.99256L9.59326 6.41726C9.45643 6.32707 9.27227 6.36373 9.18138 6.49883C9.09049 6.63393 9.12732 6.81667 9.26375 6.90667L12.9588 9.34589L9.42851 11.6765L1.83247 6.66197L9.42851 1.64765L17.0245 6.66197L15.7735 7.48785Z" fill="#011627" stroke="#011627" stroke-width="0.8"/>
</svg>
