<svg width="101" height="101" viewBox="0 0 101 101" fill="none" xmlns="http://www.w3.org/2000/svg">
<path d="M79.4858 25.893L63.5818 9.97603C63.4428 9.83703 63.2758 9.72603 63.0898 9.64903C63.0828 9.64603 63.0748 9.64503 63.0668 9.64203C62.8968 9.57503 62.7128 9.53503 62.5198 9.53503H18.7748C17.9458 9.53503 17.2748 10.206 17.2748 11.035V89.317C17.2748 90.145 17.9458 90.817 18.7748 90.817H78.6388C79.4668 90.817 80.1388 90.145 80.1388 89.317V27.739C80.1528 27.039 80.1318 26.518 79.4858 25.893ZM64.0198 14.657L75.2498 25.885L64.0198 26.019V14.657ZM77.1388 87.818H20.2748V12.536H61.0198V27.536C61.0198 27.937 61.1798 28.321 61.4648 28.603C61.7498 28.885 62.1128 29.023 62.5368 29.036L77.1388 28.862V87.818Z" fill="#FDFFFC"/>
<path d="M54.4218 37.3511C54.4218 36.5221 53.7498 35.8511 52.9218 35.8511H42.6418C41.8128 35.8511 41.1418 36.5221 41.1418 37.3511V46.5571H32.3638C31.5348 46.5571 30.8638 47.2281 30.8638 48.0571V58.3371C30.8638 59.1651 31.5348 59.8371 32.3638 59.8371H41.1418V68.1861C41.1418 69.0141 41.8128 69.6861 42.6418 69.6861H52.9218C53.7498 69.6861 54.4218 69.0141 54.4218 68.1861V59.8371H63.2008C64.0288 59.8371 64.7008 59.1651 64.7008 58.3371V48.0571C64.7008 47.2281 64.0288 46.5571 63.2008 46.5571H54.4218V37.3511ZM61.7008 49.5571V56.8371H52.9218C52.0938 56.8371 51.4218 57.5091 51.4218 58.3371V66.6861H44.1418V58.3371C44.1418 57.5091 43.4708 56.8371 42.6418 56.8371H33.8638V49.5571H42.6418C43.4708 49.5571 44.1418 48.8861 44.1418 48.0571V38.8511H51.4218V48.0571C51.4218 48.8861 52.0938 49.5571 52.9218 49.5571H61.7008Z" fill="#FDFFFC"/>
</svg>
