<svg width="101" height="101" viewBox="0 0 101 101" fill="none" xmlns="http://www.w3.org/2000/svg">
<path d="M79.4858 25.893L63.5818 9.97597C63.4428 9.83697 63.2758 9.72597 63.0898 9.64897C63.0828 9.64597 63.0748 9.64497 63.0668 9.64197C62.8968 9.57497 62.7128 9.53497 62.5198 9.53497H18.7748C17.9458 9.53497 17.2748 10.206 17.2748 11.035V89.317C17.2748 90.145 17.9458 90.817 18.7748 90.817H78.6388C79.4668 90.817 80.1388 90.145 80.1388 89.317V27.739C80.1528 27.039 80.1318 26.518 79.4858 25.893ZM64.0198 14.657L75.2498 25.885L64.0198 26.019V14.657V14.657ZM77.1388 87.818H20.2748V12.536H61.0198V27.536C61.0198 27.937 61.1798 28.321 61.4648 28.603C61.7498 28.885 62.1128 29.023 62.5368 29.036L77.1388 28.862C77.1388 28.862 77.1388 87.818 77.1388 87.818Z" fill="#011627"/>
<path d="M54.4218 37.351C54.4218 36.522 53.7498 35.851 52.9218 35.851H42.6418C41.8128 35.851 41.1418 36.522 41.1418 37.351V46.5569H32.3638C31.5348 46.5569 30.8638 47.2279 30.8638 48.0569V58.337C30.8638 59.165 31.5348 59.837 32.3638 59.837H41.1418V68.1859C41.1418 69.0139 41.8128 69.6859 42.6418 69.6859H52.9218C53.7498 69.6859 54.4218 69.0139 54.4218 68.1859V59.837H63.2008C64.0288 59.837 64.7008 59.165 64.7008 58.337V48.0569C64.7008 47.2279 64.0288 46.5569 63.2008 46.5569H54.4218C54.4218 46.5569 54.4218 37.351 54.4218 37.351ZM61.7008 49.5569V56.837H52.9218C52.0938 56.837 51.4218 57.509 51.4218 58.337V66.6859H44.1418V58.337C44.1418 57.509 43.4708 56.837 42.6418 56.837H33.8638V49.5569H42.6418C43.4708 49.5569 44.1418 48.8859 44.1418 48.0569V38.851H51.4218V48.0569C51.4218 48.8859 52.0938 49.5569 52.9218 49.5569H61.7008Z" fill="#011627"/>
</svg>
