<svg width="102" height="101" viewBox="0 0 102 101" fill="none" xmlns="http://www.w3.org/2000/svg">
<g clip-path="url(#clip0)">
<path d="M97.497 39.741C97.311 38.959 96.527 38.476 95.742 38.662C94.96 38.849 94.477 39.634 94.664 40.416C95.43 43.628 95.819 47.02 95.819 50.499C95.819 75.349 75.149 95.566 49.741 95.566C24.333 95.566 3.663 75.349 3.663 50.499C3.663 25.647 24.333 5.42897 49.741 5.42897C59.86 5.42897 69.526 8.63097 77.693 14.689C78.337 15.168 79.251 15.033 79.73 14.387C80.209 13.741 80.074 12.829 79.428 12.35C70.756 5.91597 60.49 2.51697 49.741 2.51697C22.727 2.51697 0.75 24.041 0.75 50.499C0.75 76.955 22.727 98.479 49.741 98.479C76.755 98.479 98.732 76.955 98.732 50.499C98.732 46.794 98.316 43.175 97.497 39.741Z" fill="#FDFFFC"/>
<path d="M48.73 72.182C48.344 72.182 47.974 72.029 47.7 71.756L20.387 44.447C19.818 43.878 19.818 42.956 20.387 42.387C20.955 41.818 21.877 41.818 22.446 42.387L48.669 68.606L98.207 13.12C98.743 12.52 99.663 12.468 100.263 13.004C100.863 13.54 100.915 14.46 100.38 15.06L49.816 71.696C49.549 71.995 49.171 72.171 48.771 72.182C48.757 72.182 48.744 72.182 48.73 72.182Z" fill="#FDFFFC"/>
</g>
<defs>
<clipPath id="clip0">
<rect width="100.353" height="100.353" fill="white" transform="translate(0.75 0.499023)"/>
</clipPath>
</defs>
</svg>
