<svg width="101" height="102" viewBox="0 0 101 102" fill="none" xmlns="http://www.w3.org/2000/svg">
<path d="M90.8175 33.761L49.7535 6.385C49.2495 6.049 48.5935 6.049 48.0895 6.385L7.02554 33.761C6.60854 34.039 6.35754 34.508 6.35754 35.009C6.35754 35.51 6.60754 35.979 7.02554 36.257L13.2625 40.415V62.328C13.2625 62.839 13.5225 63.315 13.9525 63.591L48.3515 85.644C48.5985 85.802 48.8795 85.881 49.1615 85.881C49.4565 85.881 49.7525 85.794 50.0065 85.62L67.9535 73.376V81.914L61.2675 95.286C61.0355 95.751 61.0605 96.304 61.3325 96.746C61.6055 97.187 62.0895 97.457 62.6085 97.457H76.2975C76.8175 97.457 77.3005 97.187 77.5735 96.746C77.8455 96.304 77.8715 95.751 77.6385 95.286L70.9525 81.914V71.329L82.3295 63.567C82.7385 63.288 82.9835 62.824 82.9835 62.328V41.479L90.8165 36.257C91.2335 35.979 91.4845 35.51 91.4845 35.009C91.4845 34.508 91.2345 34.039 90.8175 33.761ZM65.0365 94.457L69.4535 85.623L73.8705 94.457H65.0365ZM49.1355 82.583L16.2625 61.508V42.415L48.0895 63.634C48.3415 63.802 48.6315 63.886 48.9215 63.886C49.2115 63.886 49.5015 63.802 49.7535 63.634L67.9535 51.5V69.744L49.1355 82.583ZM79.9845 61.536L70.9535 67.698V49.5L79.9845 43.479V61.536ZM80.9635 39.221C80.7425 39.303 80.5475 39.434 80.3895 39.604L69.4535 46.895L49.7535 33.761C49.0625 33.301 48.1325 33.488 47.6735 34.177C47.2145 34.866 47.4005 35.798 48.0895 36.257L66.7495 48.697L48.9215 60.583L10.5615 35.009L48.9215 9.436L87.2815 35.009L80.9635 39.221Z" fill="#011627"/>
</svg>
