<svg width="101" height="102" viewBox="0 0 101 102" fill="none" xmlns="http://www.w3.org/2000/svg">
<path d="M90.8175 33.7611L49.7535 6.38506C49.2495 6.04906 48.5935 6.04906 48.0895 6.38506L7.02554 33.7611C6.60854 34.0391 6.35754 34.5081 6.35754 35.0091C6.35754 35.5101 6.60754 35.9791 7.02554 36.2571L13.2625 40.4151V62.3281C13.2625 62.8391 13.5225 63.3151 13.9525 63.5911L48.3515 85.6441C48.5985 85.802 48.8795 85.8811 49.1615 85.8811C49.4565 85.8811 49.7525 85.7941 50.0065 85.6201L67.9535 73.3761V81.9141L61.2675 95.2861C61.0355 95.7511 61.0605 96.3041 61.3325 96.7461C61.6055 97.1871 62.0895 97.4571 62.6085 97.4571H76.2975C76.8175 97.4571 77.3005 97.1871 77.5735 96.7461C77.8455 96.3041 77.8715 95.7511 77.6385 95.2861L70.9525 81.9141V71.3291L82.3295 63.5671C82.7385 63.2881 82.9835 62.8241 82.9835 62.3281V41.4791L90.8165 36.2571C91.2335 35.9791 91.4845 35.5101 91.4845 35.0091C91.4845 34.5081 91.2345 34.0391 90.8175 33.7611ZM65.0365 94.4571L69.4535 85.6231L73.8705 94.4571H65.0365ZM49.1355 82.5831L16.2625 61.5081V42.4151L48.0895 63.6341C48.3415 63.8021 48.6315 63.8861 48.9215 63.8861C49.2115 63.8861 49.5015 63.8021 49.7535 63.6341L67.9535 51.5001V69.7441L49.1355 82.5831ZM79.9845 61.5361L70.9535 67.6981V49.5001L79.9845 43.4791V61.5361ZM80.9635 39.2211C80.7425 39.3031 80.5475 39.4341 80.3895 39.6041L69.4535 46.8951L49.7535 33.7611C49.0625 33.3011 48.1325 33.4881 47.6735 34.1771C47.2145 34.8661 47.4005 35.7981 48.0895 36.2571L66.7495 48.6971L48.9215 60.5831L10.5615 35.0091L48.9215 9.43606L87.2815 35.0091L80.9635 39.2211Z" fill="#FDFFFC"/>
</svg>
