<svg width="22" height="11" viewBox="0 0 22 11" fill="none" xmlns="http://www.w3.org/2000/svg">
<path d="M15.7249 7.07849H5.72493C5.64693 7.07849 5.57213 7.10949 5.51697 7.16465C5.46182 7.2198 5.43082 7.29461 5.43082 7.37261C5.43082 7.45061 5.46182 7.52543 5.51697 7.58059C5.57213 7.63575 5.64693 7.66673 5.72493 7.66673H15.7249C15.8029 7.66673 15.8778 7.63575 15.9329 7.58059C15.9881 7.52543 16.019 7.45061 16.019 7.37261C16.019 7.29461 15.9881 7.2198 15.9329 7.16465C15.8778 7.10949 15.8029 7.07849 15.7249 7.07849Z" fill="#FDFFFC" stroke="#FDFFFC" stroke-width="0.8"/>
<path d="M15.7249 5.11768H5.72493C5.64693 5.11768 5.57213 5.14868 5.51697 5.20383C5.46182 5.25899 5.43082 5.33379 5.43082 5.41179C5.43082 5.48979 5.46182 5.56462 5.51697 5.61977C5.57213 5.67493 5.64693 5.70591 5.72493 5.70591H15.7249C15.8029 5.70591 15.8778 5.67493 15.9329 5.61977C15.9881 5.56462 16.019 5.48979 16.019 5.41179C16.019 5.33379 15.9881 5.25899 15.9329 5.20383C15.8778 5.14868 15.8029 5.11768 15.7249 5.11768Z" fill="#FDFFFC" stroke="#FDFFFC" stroke-width="0.8"/>
<path d="M20.5916 4.78431C20.4814 4.16912 20.1605 3.61147 19.6839 3.20714C19.2073 2.80282 18.6048 2.57706 17.9799 2.56863V1.29412C17.9799 1.21612 17.9489 1.14131 17.8937 1.08616C17.8385 1.031 17.7637 1 17.6857 1H3.96024C3.88222 1 3.80742 1.031 3.75226 1.08616C3.69711 1.14131 3.66613 1.21612 3.66613 1.29412V2.56863H3.58377C3.2143 2.569 2.84935 2.64969 2.51417 2.8051C2.17899 2.96049 1.88159 3.1869 1.64259 3.46863C1.38955 3.76606 1.20415 4.1149 1.0992 4.49104C0.994247 4.86716 0.972255 5.26161 1.03474 5.64706C1.13776 6.26594 1.45695 6.82824 1.93553 7.23394C2.41411 7.63963 3.02107 7.86245 3.64848 7.86275H3.66613V9.52941C3.66613 9.60741 3.69711 9.68224 3.75226 9.73739C3.80742 9.79255 3.88222 9.82353 3.96024 9.82353H17.6857C17.7637 9.82353 17.8385 9.79255 17.8937 9.73739C17.9489 9.68224 17.9799 9.60741 17.9799 9.52941V7.86275C18.364 7.86276 18.7435 7.77918 19.0921 7.61778C19.4406 7.45641 19.7499 7.2211 19.9984 6.9282C20.2469 6.63527 20.4287 6.2918 20.5312 5.92159C20.6336 5.55137 20.6541 5.16331 20.5916 4.78431ZM3.64848 7.27451C3.16118 7.27482 2.68955 7.10245 2.3173 6.788C1.94505 6.47355 1.69627 6.03735 1.61514 5.55686C1.56726 5.25486 1.5856 4.94606 1.66888 4.65184C1.75217 4.35763 1.89842 4.08504 2.09749 3.85294C2.28023 3.63643 2.50772 3.46208 2.76429 3.34192C3.02087 3.22176 3.30044 3.15863 3.58377 3.15686H3.66613V7.27451H3.64848ZM17.3916 9.23529H4.25436V1.58824H17.3916V9.23529ZM19.5485 6.55098C19.3553 6.77831 19.1149 6.96082 18.844 7.08576C18.573 7.21073 18.2782 7.27514 17.9799 7.27451V3.15686C18.4645 3.16535 18.9313 3.34092 19.3015 3.65388C19.6716 3.96686 19.9223 4.39802 20.0112 4.87451C20.0623 5.17078 20.0473 5.47469 19.9673 5.76451C19.8873 6.05431 19.7443 6.32286 19.5485 6.55098Z" fill="#FDFFFC" stroke="#FDFFFC" stroke-width="0.8"/>
</svg>
