<svg width="102" height="102" viewBox="0 0 102 102" fill="none" xmlns="http://www.w3.org/2000/svg">
<g clip-path="url(#clip0)">
<path d="M75.603 59.499H24.603C24.2052 59.499 23.8237 59.6571 23.5424 59.9384C23.2611 60.2197 23.103 60.6012 23.103 60.999C23.103 61.3968 23.2611 61.7784 23.5424 62.0597C23.8237 62.341 24.2052 62.499 24.603 62.499H75.603C76.0009 62.499 76.3824 62.341 76.6637 62.0597C76.945 61.7784 77.103 61.3968 77.103 60.999C77.103 60.6012 76.945 60.2197 76.6637 59.9384C76.3824 59.6571 76.0009 59.499 75.603 59.499V59.499Z" fill="#011627"/>
<path d="M75.603 49.499H24.603C24.2052 49.499 23.8237 49.6571 23.5424 49.9384C23.2611 50.2197 23.103 50.6012 23.103 50.999C23.103 51.3968 23.2611 51.7784 23.5424 52.0597C23.8237 52.341 24.2052 52.499 24.603 52.499H75.603C76.0009 52.499 76.3824 52.341 76.6637 52.0597C76.945 51.7784 77.103 51.3968 77.103 50.999C77.103 50.6012 76.945 50.2197 76.6637 49.9384C76.3824 49.6571 76.0009 49.499 75.603 49.499Z" fill="#011627"/>
<path d="M100.423 47.799C99.8611 44.6615 98.2243 41.8175 95.7936 39.7554C93.363 37.6934 90.2902 36.542 87.1031 36.499V29.999C87.1031 29.6012 86.945 29.2197 86.6637 28.9384C86.3824 28.6571 86.0009 28.499 85.6031 28.499H15.6031C15.2052 28.499 14.8237 28.6571 14.5424 28.9384C14.2611 29.2197 14.1031 29.6012 14.1031 29.999V36.499H13.6831C11.7988 36.5009 9.93755 36.9124 8.22813 37.705C6.5187 38.4975 5.00199 39.6522 3.78305 41.089C2.49258 42.6059 1.54702 44.385 1.01177 46.3033C0.476519 48.2215 0.36436 50.2332 0.68305 52.199C1.20845 55.3553 2.83628 58.223 5.27704 60.2921C7.71781 62.3611 10.8133 63.4975 14.0131 63.499H14.1031V71.999C14.1031 72.3968 14.2611 72.7784 14.5424 73.0597C14.8237 73.341 15.2052 73.499 15.6031 73.499H85.6031C86.0009 73.499 86.3824 73.341 86.6637 73.0597C86.945 72.7784 87.1031 72.3968 87.1031 71.999V63.499C89.0621 63.4991 90.9976 63.0728 92.7754 62.2497C94.5531 61.4267 96.1304 60.2266 97.3978 58.7328C98.6652 57.2389 99.5922 55.4872 100.115 53.5991C100.637 51.711 100.742 49.7319 100.423 47.799V47.799ZM14.0131 60.499C11.5279 60.5006 9.12254 59.6215 7.22408 58.0178C5.32561 56.4141 4.05685 54.1895 3.64305 51.739C3.39887 50.1988 3.49241 48.6239 3.91717 47.1234C4.34194 45.6229 5.08778 44.2327 6.10305 43.049C7.03501 41.9448 8.19521 41.0556 9.50376 40.4428C10.8123 39.83 12.2381 39.508 13.6831 39.499H14.1031V60.499H14.0131ZM84.1031 70.499H17.1031V31.499H84.1031V70.499ZM95.1031 56.809C94.1178 57.9684 92.8917 58.8992 91.5101 59.5364C90.1284 60.1737 88.6245 60.5022 87.1031 60.499V39.499C89.5747 39.5423 91.9556 40.4377 93.8433 42.0338C95.7309 43.63 97.0096 45.8289 97.4631 48.259C97.7236 49.77 97.6472 51.3199 97.2392 52.798C96.8312 54.276 96.1018 55.6456 95.1031 56.809Z" fill="#011627"/>
</g>
<defs>
<clipPath id="clip0">
<rect width="101" height="101" fill="white" transform="translate(0.103027 0.499023)"/>
</clipPath>
</defs>
</svg>
