<svg width="272" height="113" viewBox="0 0 272 113" fill="none" xmlns="http://www.w3.org/2000/svg">
<path d="M190.323 39.4096C195.217 44.5496 203.244 42.8235 208.251 35.5544C213.259 28.2853 213.351 18.2257 208.457 13.0858C203.563 7.94584 195.536 9.67189 190.529 16.941C185.521 24.2101 185.429 34.2697 190.323 39.4096Z" fill="#FFE7CE"/>
<path d="M190.763 35.6305C195.657 40.7705 203.684 39.0444 208.691 31.7753C213.699 24.5062 213.791 14.4466 208.897 9.30668C204.003 4.16674 195.976 5.89279 190.969 13.1619C185.961 20.4311 185.869 30.4906 190.763 35.6305Z" fill="#FFF0E2"/>
<path d="M196.41 27.8095C198.504 30.0082 201.903 29.3199 204.002 26.2723C206.102 23.2246 206.107 18.9716 204.013 16.7729C201.92 14.5742 198.521 15.2625 196.421 18.3102C194.322 21.3579 194.317 25.6109 196.41 27.8095Z" fill="#FFC080"/>
<path d="M204.013 16.7729C203.008 15.717 201.643 15.2858 200.22 15.5741C198.796 15.8623 197.43 16.8465 196.421 18.31C195.598 19.5091 195.064 20.9562 194.902 22.4327C195.168 21.6443 195.538 20.9009 195.994 20.2378C197.002 18.7744 198.368 17.7902 199.792 17.5019C201.216 17.2136 202.58 17.6448 203.586 18.7005C204.172 19.3177 204.613 20.1246 204.875 21.0576C205.137 21.9906 205.212 23.0242 205.094 24.0772C205.547 22.7417 205.687 21.3269 205.493 20.0218C205.3 18.7168 204.784 17.5833 204.013 16.7729V16.7729Z" fill="#FFA245"/>
<path d="M201.149 75.7721C208.095 75.7721 213.726 68.2035 213.726 58.8672C213.726 49.5308 208.095 41.9622 201.149 41.9622C194.203 41.9622 188.572 49.5308 188.572 58.8672C188.572 68.2035 194.203 75.7721 201.149 75.7721Z" fill="#FFE7CE"/>
<path d="M199.367 72.6115C206.313 72.6115 211.944 65.0429 211.944 55.7065C211.944 46.3702 206.313 38.8016 199.367 38.8016C192.421 38.8016 186.79 46.3702 186.79 55.7065C186.79 65.0429 192.421 72.6115 199.367 72.6115Z" fill="#FFF0E2"/>
<path d="M199.581 62.3632C202.552 62.3632 204.961 59.1899 204.961 55.2755C204.961 51.3611 202.552 48.1879 199.581 48.1879C196.609 48.1879 194.201 51.3611 194.201 55.2755C194.201 59.1899 196.609 62.3632 199.581 62.3632Z" fill="#FFC080"/>
<path d="M199.581 48.1879C198.154 48.1879 196.786 48.9346 195.777 50.2637C194.768 51.5929 194.201 53.3956 194.201 55.2754C194.203 56.8137 194.584 58.3095 195.288 59.5369C195.061 58.7409 194.943 57.8973 194.942 57.0466C194.943 55.1669 195.509 53.3642 196.518 52.035C197.527 50.7059 198.895 49.9591 200.322 49.9591C201.155 49.9603 201.976 50.2163 202.721 50.7066C203.466 51.197 204.114 51.9085 204.615 52.7851C204.23 51.4352 203.542 50.272 202.643 49.4506C201.743 48.6292 200.675 48.1887 199.581 48.1879V48.1879Z" fill="#FFA245"/>
<path d="M252.334 43.2466C259.28 43.2466 264.911 36.0909 264.911 27.264C264.911 18.4371 259.28 11.2814 252.334 11.2814C245.388 11.2814 239.757 18.4371 239.757 27.264C239.757 36.0909 245.388 43.2466 252.334 43.2466Z" fill="#FFE7CE"/>
<path d="M251.158 40.3592C258.104 40.3592 263.735 33.2036 263.735 24.3766C263.735 15.5497 258.104 8.39406 251.158 8.39406C244.211 8.39406 238.581 15.5497 238.581 24.3766C238.581 33.2036 244.211 40.3592 251.158 40.3592Z" fill="#FFF0E2"/>
<path d="M250.766 30.5692C253.737 30.5692 256.146 27.5691 256.146 23.8683C256.146 20.1675 253.737 17.1674 250.766 17.1674C247.795 17.1674 245.386 20.1675 245.386 23.8683C245.386 27.5691 247.795 30.5692 250.766 30.5692Z" fill="#FFC080"/>
<path d="M250.766 17.1674C249.339 17.1673 247.971 17.8733 246.962 19.1299C245.953 20.3866 245.386 22.091 245.386 23.8682C245.388 25.3226 245.77 26.7367 246.474 27.8972C246.246 27.1445 246.129 26.347 246.128 25.5427C246.128 23.7656 246.695 22.0612 247.703 20.8046C248.712 19.548 250.081 18.842 251.507 18.8419C252.34 18.8431 253.161 19.085 253.906 19.5487C254.651 20.0123 255.299 20.685 255.8 21.5137C255.415 20.2375 254.728 19.1377 253.828 18.3611C252.929 17.5846 251.86 17.1681 250.766 17.1674V17.1674Z" fill="#FFA245"/>
<path d="M227.67 74.5699C235.188 74.5699 241.283 67.0013 241.283 57.665C241.283 48.3286 235.188 40.76 227.67 40.76C220.152 40.76 214.057 48.3286 214.057 57.665C214.057 67.0013 220.152 74.5699 227.67 74.5699Z" fill="#FFE7CE"/>
<path d="M225.742 71.4092C233.26 71.4092 239.355 63.8406 239.355 54.5043C239.355 45.1679 233.26 37.5993 225.742 37.5993C218.224 37.5993 212.129 45.1679 212.129 54.5043C212.129 63.8406 218.224 71.4092 225.742 71.4092Z" fill="#FFF0E2"/>
<path d="M225.973 61.1609C229.189 61.1609 231.796 57.9876 231.796 54.0733C231.796 50.1589 229.189 46.9856 225.973 46.9856C222.757 46.9856 220.15 50.1589 220.15 54.0733C220.15 57.9876 222.757 61.1609 225.973 61.1609Z" fill="#FFC080"/>
<path d="M225.973 46.9856C224.429 46.9856 222.948 47.7323 221.856 49.0615C220.764 50.3906 220.15 52.1934 220.15 54.0731C220.152 55.6115 220.565 57.1073 221.327 58.3346C221.081 57.5386 220.954 56.695 220.953 55.8443C220.953 53.9646 221.566 52.1619 222.658 50.8328C223.75 49.5036 225.231 48.7569 226.776 48.7568C227.677 48.7581 228.566 49.014 229.372 49.5044C230.178 49.9948 230.88 50.7062 231.422 51.5828C231.006 50.2329 230.261 49.0697 229.288 48.2483C228.314 47.4269 227.158 46.9864 225.973 46.9856V46.9856Z" fill="#FFA245"/>
<path d="M253.789 75.077C260.735 74.1407 266.366 66.226 266.366 57.3991C266.366 48.5721 260.735 42.1755 253.789 43.1119C246.843 44.0482 241.212 51.9629 241.212 60.7898C241.212 69.6168 246.843 76.0134 253.789 75.077Z" fill="#FFE7CE"/>
<path d="M252.008 72.3289C258.954 71.3926 264.585 63.4779 264.585 54.651C264.585 45.824 258.954 39.4275 252.008 40.3638C245.061 41.3001 239.431 49.2148 239.431 58.0418C239.431 66.8687 245.061 73.2653 252.008 72.3289Z" fill="#FFF0E2"/>
<path d="M252.221 62.611C255.192 62.2104 257.601 58.8857 257.601 55.1848C257.601 51.484 255.192 48.8086 252.221 49.2091C249.25 49.6097 246.841 52.9345 246.841 56.6353C246.841 60.3361 249.25 63.0115 252.221 62.611Z" fill="#FFC080"/>
<path d="M252.221 49.2092C250.794 49.4015 249.426 50.2919 248.417 51.6845C247.408 53.0772 246.841 54.858 246.841 56.6352C246.843 58.0893 247.225 59.4521 247.929 60.5176C247.701 59.7957 247.584 59.0139 247.583 58.2097C247.583 56.4326 248.15 54.6519 249.159 53.2592C250.168 51.8666 251.536 50.9761 252.963 50.7837C253.795 50.6727 254.616 50.804 255.361 51.1672C256.106 51.5304 256.755 52.1157 257.255 52.8769C256.871 51.6525 256.183 50.6455 255.283 49.9902C254.384 49.3348 253.316 49.0624 252.221 49.2092V49.2092Z" fill="#FFA245"/>
<path d="M257.539 106.892C265.526 106.892 272 99.736 272 90.9091C272 82.0821 265.526 74.9265 257.539 74.9265C249.553 74.9265 243.078 82.0821 243.078 90.9091C243.078 99.736 249.553 106.892 257.539 106.892Z" fill="#FFE7CE"/>
<path d="M255.491 103.903C263.477 103.903 269.952 96.7477 269.952 87.9208C269.952 79.0939 263.477 71.9382 255.491 71.9382C247.504 71.9382 241.03 79.0939 241.03 87.9208C241.03 96.7477 247.504 103.903 255.491 103.903Z" fill="#FFF0E2"/>
<path d="M255.737 94.2143C259.153 94.2143 261.922 91.2142 261.922 87.5133C261.922 83.8125 259.153 80.8124 255.737 80.8124C252.32 80.8124 249.551 83.8125 249.551 87.5133C249.551 91.2142 252.32 94.2143 255.737 94.2143Z" fill="#FFC080"/>
<path d="M255.737 80.8124C254.096 80.8124 252.523 81.5184 251.363 82.775C250.203 84.0316 249.551 85.736 249.551 87.5132C249.553 88.9676 249.992 90.3818 250.801 91.5422C250.539 90.7896 250.405 89.9921 250.404 89.1878C250.404 87.4106 251.055 85.7063 252.215 84.4496C253.375 83.193 254.949 82.487 256.589 82.487C257.547 82.4882 258.491 82.7301 259.347 83.1937C260.204 83.6574 260.949 84.33 261.525 85.1588C261.083 83.8826 260.292 82.7828 259.257 82.0062C258.223 81.2296 256.995 80.8132 255.737 80.8124V80.8124Z" fill="#FFA245"/>
<path d="M183.045 96.6415C181.382 96.7791 179.93 97.0676 178.876 97.5668C176.955 98.4762 174.016 99.2272 170.979 99.8221C169.678 103.524 167.274 106.382 164.269 107.799C164.422 107.732 164.578 107.662 164.739 107.587C168.758 105.705 176.552 104.145 182.843 104.636C192.099 105.358 195.854 110.1 206.819 108.124C217.785 106.148 224.731 109.427 224.731 109.427C224.731 109.427 223.761 103.063 226.405 102.04C229.049 101.017 201.424 98.252 201.424 98.252C201.424 98.252 190.251 96.0421 183.045 96.6415V96.6415ZM163.856 107.971C163.634 108.066 163.409 108.153 163.183 108.231C163.392 108.155 163.616 108.069 163.856 107.971ZM162.949 108.316C162.468 108.464 161.978 108.575 161.484 108.649L161.512 108.728C161.514 108.731 162.064 108.623 162.949 108.316V108.316Z" fill="#FFF0E2"/>
<path d="M111.321 39.6038C119.307 39.6038 125.782 32.4481 125.782 23.6212C125.782 14.7943 119.307 7.63861 111.321 7.63861C103.335 7.63861 96.8602 14.7943 96.8602 23.6212C96.8602 32.4481 103.335 39.6038 111.321 39.6038Z" fill="#FFE7CE"/>
<path d="M109.273 36.6155C117.259 36.6155 123.734 29.4599 123.734 20.6329C123.734 11.806 117.259 4.65034 109.273 4.65034C101.286 4.65034 94.8121 11.806 94.8121 20.6329C94.8121 29.4599 101.286 36.6155 109.273 36.6155Z" fill="#FFF0E2"/>
<path d="M109.518 26.9264C112.935 26.9264 115.704 23.9263 115.704 20.2255C115.704 16.5247 112.935 13.5246 109.518 13.5246C106.102 13.5246 103.333 16.5247 103.333 20.2255C103.333 23.9263 106.102 26.9264 109.518 26.9264Z" fill="#FFC080"/>
<path d="M109.519 13.5246C107.878 13.5245 106.305 14.2305 105.144 15.4871C103.984 16.7438 103.333 18.4482 103.333 20.2254C103.335 21.6798 103.774 23.0939 104.583 24.2543C104.321 23.5017 104.186 22.7042 104.185 21.8999C104.185 20.1227 104.837 18.4184 105.997 17.1618C107.157 15.9051 108.73 15.1991 110.371 15.1991C111.328 15.2003 112.273 15.4422 113.129 15.9059C113.985 16.3695 114.731 17.0422 115.306 17.8709C114.864 16.5947 114.073 15.4949 113.039 14.7183C112.005 13.9417 110.777 13.5253 109.519 13.5246V13.5246Z" fill="#FFA245"/>
<path d="M139.192 44.2821C146.711 44.2821 152.805 36.7135 152.805 27.3772C152.805 18.0408 146.711 10.4722 139.192 10.4722C131.674 10.4722 125.579 18.0408 125.579 27.3772C125.579 36.7135 131.674 44.2821 139.192 44.2821Z" fill="#FFE7CE"/>
<path d="M137.264 41.1214C144.782 41.1214 150.877 33.5528 150.877 24.2164C150.877 14.8801 144.782 7.31151 137.264 7.31151C129.746 7.31151 123.651 14.8801 123.651 24.2164C123.651 33.5528 129.746 41.1214 137.264 41.1214Z" fill="#FFF0E2"/>
<path d="M137.496 30.8731C140.712 30.8731 143.319 27.6998 143.319 23.7854C143.319 19.8711 140.712 16.6978 137.496 16.6978C134.279 16.6978 131.672 19.8711 131.672 23.7854C131.672 27.6998 134.279 30.8731 137.496 30.8731Z" fill="#FFC080"/>
<path d="M137.496 16.6978C135.951 16.6978 134.47 17.4445 133.378 18.7737C132.286 20.1028 131.672 21.9056 131.672 23.7853C131.674 25.3237 132.088 26.8194 132.849 28.0468C132.603 27.2508 132.476 26.4072 132.475 25.5565C132.475 23.6768 133.089 21.8741 134.181 20.5449C135.273 19.2158 136.754 18.469 138.298 18.469C139.199 18.4703 140.088 18.7262 140.894 19.2166C141.701 19.7069 142.402 20.4184 142.944 21.295C142.528 19.9451 141.783 18.7819 140.81 17.9605C139.836 17.1391 138.68 16.6986 137.496 16.6978V16.6978Z" fill="#FFA245"/>
<path d="M166.378 42.6958C173.101 42.6958 177.956 35.7673 177.222 27.2205C176.488 18.6737 170.443 11.7452 163.72 11.7452C156.997 11.7452 152.141 18.6737 152.875 27.2205C153.609 35.7673 159.655 42.6958 166.378 42.6958Z" fill="#FFE7CE"/>
<path d="M164.405 39.8024C171.128 39.8024 175.984 32.8739 175.25 24.3271C174.516 15.7804 168.471 8.85184 161.747 8.85184C155.024 8.85184 150.169 15.7804 150.903 24.3271C151.637 32.8739 157.682 39.8024 164.405 39.8024Z" fill="#FFF0E2"/>
<path d="M163.806 30.4208C166.682 30.4208 168.764 27.5159 168.456 23.9326C168.149 20.3492 165.568 17.4444 162.692 17.4444C159.816 17.4444 157.734 20.3492 158.042 23.9326C158.349 27.5159 160.93 30.4208 163.806 30.4208Z" fill="#FFC080"/>
<path d="M162.692 17.4444C161.311 17.4443 160.045 18.1279 159.173 19.3446C158.301 20.5614 157.894 22.2117 158.042 23.9325C158.164 25.3407 158.651 26.71 159.429 27.8336C159.146 27.1048 158.967 26.3326 158.899 25.5538C158.751 23.8331 159.158 22.1829 160.03 20.9661C160.902 19.7494 162.168 19.0658 163.549 19.0657C164.355 19.0669 165.17 19.3012 165.929 19.7501C166.689 20.199 167.372 20.8503 167.926 21.6527C167.447 20.417 166.69 19.3522 165.755 18.6002C164.82 17.8483 163.751 17.4451 162.692 17.4444V17.4444Z" fill="#FFA245"/>
<path d="M111.75 73.7532C118.696 73.7532 124.327 66.1846 124.327 56.8482C124.327 47.5119 118.696 39.9433 111.75 39.9433C104.804 39.9433 99.1726 47.5119 99.1726 56.8482C99.1726 66.1846 104.804 73.7532 111.75 73.7532Z" fill="#FFE7CE"/>
<path d="M109.968 70.5925C116.914 70.5925 122.545 63.0239 122.545 53.6875C122.545 44.3512 116.914 36.7826 109.968 36.7826C103.022 36.7826 97.3911 44.3512 97.3911 53.6875C97.3911 63.0239 103.022 70.5925 109.968 70.5925Z" fill="#FFF0E2"/>
<path d="M110.182 60.3441C113.153 60.3441 115.562 57.1709 115.562 53.2565C115.562 49.3421 113.153 46.1689 110.182 46.1689C107.21 46.1689 104.802 49.3421 104.802 53.2565C104.802 57.1709 107.21 60.3441 110.182 60.3441Z" fill="#FFC080"/>
<path d="M110.182 46.1689C108.755 46.1689 107.386 46.9156 106.377 48.2447C105.369 49.5739 104.802 51.3766 104.802 53.2564C104.803 54.7947 105.185 56.2905 105.889 57.5179C105.661 56.7219 105.544 55.8783 105.543 55.0276C105.543 53.1479 106.11 51.3452 107.119 50.016C108.128 48.6869 109.496 47.9401 110.923 47.9401C111.756 47.9413 112.577 48.1972 113.322 48.6876C114.067 49.178 114.715 49.8895 115.216 50.766C114.831 49.4162 114.143 48.253 113.244 47.4316C112.344 46.6102 111.276 46.1697 110.182 46.1689V46.1689Z" fill="#FFA245"/>
<path d="M162.638 74.6041C169.584 73.6678 175.215 65.7531 175.215 56.9262C175.215 48.0992 169.584 41.7026 162.638 42.639C155.692 43.5753 150.061 51.49 150.061 60.317C150.061 69.1439 155.692 75.5405 162.638 74.6041Z" fill="#FFE7CE"/>
<path d="M160.856 71.856C167.802 70.9197 173.433 63.005 173.433 54.1781C173.433 45.3511 167.802 38.9546 160.856 39.8909C153.91 40.8272 148.279 48.7419 148.279 57.5689C148.279 66.3958 153.91 72.7924 160.856 71.856Z" fill="#FFF0E2"/>
<path d="M161.07 62.1381C164.041 61.7375 166.45 58.4128 166.45 54.7119C166.45 51.0111 164.041 48.3357 161.07 48.7362C158.099 49.1368 155.69 52.4616 155.69 56.1624C155.69 59.8632 158.099 62.5386 161.07 62.1381Z" fill="#FFC080"/>
<path d="M161.07 48.7362C159.643 48.9286 158.275 49.819 157.266 51.2116C156.257 52.6043 155.69 54.3851 155.69 56.1623C155.692 57.6164 156.073 58.9792 156.777 60.0447C156.55 59.3228 156.432 58.541 156.432 57.7368C156.432 55.9597 156.998 54.179 158.007 52.7863C159.016 51.3937 160.385 50.5032 161.811 50.3108C162.644 50.1998 163.465 50.3311 164.21 50.6943C164.955 51.0575 165.603 51.6428 166.104 52.404C165.719 51.1796 165.031 50.1726 164.132 49.5173C163.233 48.8619 162.164 48.5895 161.07 48.7362V48.7362Z" fill="#FFA245"/>
<path d="M164.939 106.894C171.885 106.894 177.516 99.7384 177.516 90.9115C177.516 82.0846 171.885 74.9289 164.939 74.9289C157.993 74.9289 152.362 82.0846 152.362 90.9115C152.362 99.7384 157.993 106.894 164.939 106.894Z" fill="#FFE7CE"/>
<path d="M163.158 103.906C170.104 103.906 175.735 96.7502 175.735 87.9232C175.735 79.0963 170.104 71.9407 163.158 71.9407C156.212 71.9407 150.581 79.0963 150.581 87.9232C150.581 96.7502 156.212 103.906 163.158 103.906Z" fill="#FFF0E2"/>
<path d="M163.371 94.2166C166.343 94.2166 168.751 91.2165 168.751 87.5157C168.751 83.8149 166.343 80.8148 163.371 80.8148C160.4 80.8148 157.991 83.8149 157.991 87.5157C157.991 91.2165 160.4 94.2166 163.371 94.2166Z" fill="#FFC080"/>
<path d="M163.372 80.8148C161.945 80.8148 160.576 81.5208 159.567 82.7774C158.558 84.034 157.991 85.7384 157.991 87.5156C157.993 88.97 158.375 90.3842 159.079 91.5446C158.851 90.792 158.734 89.9945 158.733 89.1901C158.733 87.413 159.3 85.7087 160.309 84.452C161.318 83.1954 162.686 82.4894 164.113 82.4894C164.946 82.4906 165.767 82.7325 166.512 83.1961C167.257 83.6598 167.905 84.3324 168.406 85.1612C168.021 83.8849 167.333 82.7852 166.434 82.0086C165.534 81.232 164.466 80.8156 163.372 80.8148V80.8148Z" fill="#FFA245"/>
<path d="M111.584 105.553C119.414 105.553 125.762 98.3977 125.762 89.5708C125.762 80.7438 119.414 73.5882 111.584 73.5882C103.753 73.5882 97.4055 80.7438 97.4055 89.5708C97.4055 98.3977 103.753 105.553 111.584 105.553Z" fill="#FFE7CE"/>
<path d="M109.576 102.565C117.406 102.565 123.754 95.4095 123.754 86.5825C123.754 77.7556 117.406 70.5999 109.576 70.5999C101.745 70.5999 95.3976 77.7556 95.3976 86.5825C95.3976 95.4095 101.745 102.565 109.576 102.565Z" fill="#FFF0E2"/>
<path d="M109.817 92.876C113.166 92.876 115.882 89.8759 115.882 86.1751C115.882 82.4742 113.166 79.4741 109.817 79.4741C106.467 79.4741 103.752 82.4742 103.752 86.1751C103.752 89.8759 106.467 92.876 109.817 92.876Z" fill="#FFC080"/>
<path d="M109.816 79.4741C108.208 79.4741 106.665 80.1801 105.528 81.4367C104.39 82.6934 103.751 84.3977 103.751 86.1749C103.754 87.6293 104.184 89.0435 104.977 90.2039C104.721 89.4513 104.589 88.6538 104.588 87.8495C104.588 86.0723 105.227 84.368 106.364 83.1114C107.501 81.8547 109.044 81.1487 110.652 81.1487C111.591 81.1499 112.517 81.3918 113.356 81.8555C114.196 82.3191 114.927 82.9917 115.491 83.8205C115.058 82.5443 114.282 81.4445 113.268 80.6679C112.254 79.8913 111.05 79.4749 109.816 79.4741V79.4741Z" fill="#FFA245"/>
<path d="M128.675 106.662C134.681 110.152 143.31 106.508 147.949 98.5232C152.589 90.5387 151.481 81.2371 145.475 77.7475C139.469 74.2578 130.839 77.9016 126.2 85.8861C121.561 93.8707 122.669 103.172 128.675 106.662Z" fill="#FFE7CE"/>
<path d="M128.705 103.064C134.711 106.554 143.341 102.91 147.98 94.9252C152.619 86.9407 151.511 77.6391 145.505 74.1495C139.499 70.6598 130.87 74.3036 126.231 82.2881C121.591 90.2726 122.699 99.5743 128.705 103.064Z" fill="#FFF0E2"/>
<path d="M133.982 94.4069C136.551 95.8996 140.211 94.3959 142.156 91.0483C144.101 87.7007 143.595 83.7768 141.026 82.2841C138.457 80.7914 134.797 82.295 132.852 85.6426C130.907 88.9903 131.413 92.9141 133.982 94.4069Z" fill="#FFC080"/>
<path d="M141.026 82.2841C139.792 81.5672 138.238 81.5183 136.705 82.1482C135.172 82.778 133.786 84.0349 132.852 85.6425C132.089 86.959 131.676 88.43 131.675 89.8333C131.874 89.0381 132.191 88.2578 132.613 87.5298C133.547 85.9223 134.933 84.6654 136.466 84.0355C137.999 83.4057 139.553 83.4545 140.787 84.1713C141.506 84.5907 142.089 85.2221 142.489 86.0157C142.89 86.8093 143.097 87.7435 143.094 88.7446C143.432 87.397 143.416 86.0566 143.046 84.9023C142.676 83.7479 141.972 82.8346 141.026 82.2841V82.2841Z" fill="#FFA245"/>
<path d="M14.3585 42.9337C21.3046 42.9337 26.9355 35.7781 26.9355 26.9511C26.9355 18.1242 21.3046 10.9686 14.3585 10.9686C7.41242 10.9686 1.78149 18.1242 1.78149 26.9511C1.78149 35.7781 7.41242 42.9337 14.3585 42.9337Z" fill="#FFE7CE"/>
<path d="M12.577 39.9455C19.5231 39.9455 25.154 32.7898 25.154 23.9629C25.154 15.1359 19.5231 7.9803 12.577 7.9803C5.63092 7.9803 0 15.1359 0 23.9629C0 32.7898 5.63092 39.9455 12.577 39.9455Z" fill="#FFF0E2"/>
<path d="M12.7907 30.2563C15.762 30.2563 18.1707 27.2562 18.1707 23.5554C18.1707 19.8546 15.762 16.8545 12.7907 16.8545C9.81946 16.8545 7.41077 19.8546 7.41077 23.5554C7.41077 27.2562 9.81946 30.2563 12.7907 30.2563Z" fill="#FFC080"/>
<path d="M12.7907 16.8545C11.3639 16.8544 9.99543 17.5604 8.98647 18.8171C7.97751 20.0737 7.41067 21.7781 7.41064 23.5553C7.4125 25.0097 7.79421 26.4239 8.49816 27.5843C8.27037 26.8317 8.15323 26.0341 8.15234 25.2298C8.15236 23.4527 8.71917 21.7483 9.72807 20.4917C10.737 19.2351 12.1053 18.5291 13.5321 18.529C14.3648 18.5302 15.186 18.7722 15.9308 19.2358C16.6757 19.6994 17.324 20.3721 17.8247 21.2008C17.4401 19.9246 16.7522 18.8248 15.8528 18.0483C14.9533 17.2717 13.8851 16.8552 12.7907 16.8545V16.8545Z" fill="#FFA245"/>
<path d="M67.0914 43.5268C74.0375 42.5905 79.6685 34.6758 79.6685 25.8488C79.6685 17.0219 74.0375 10.6253 67.0914 11.5617C60.1453 12.498 54.5144 20.4127 54.5144 29.2396C54.5144 38.0666 60.1453 44.4631 67.0914 43.5268Z" fill="#FFE7CE"/>
<path d="M65.3101 40.7787C72.2562 39.8424 77.8871 31.9277 77.8871 23.1008C77.8871 14.2738 72.2562 7.87724 65.3101 8.81358C58.364 9.74992 52.733 17.6646 52.733 26.4915C52.733 35.3185 58.364 41.7151 65.3101 40.7787Z" fill="#FFF0E2"/>
<path d="M65.5235 31.0608C68.4948 30.6602 70.9035 27.3354 70.9035 23.6346C70.9035 19.9338 68.4948 17.2584 65.5235 17.6589C62.5522 18.0595 60.1436 21.3843 60.1436 25.0851C60.1436 28.7859 62.5522 31.4613 65.5235 31.0608Z" fill="#FFC080"/>
<path d="M65.5236 17.6589C64.0968 17.8512 62.7283 18.7417 61.7194 20.1343C60.7104 21.527 60.1436 23.3078 60.1436 25.085C60.1454 26.5391 60.5271 27.9018 61.2311 28.9674C61.0033 28.2455 60.8861 27.4637 60.8852 26.6595C60.8853 24.8824 61.4521 23.1016 62.461 21.709C63.4699 20.3164 64.8382 19.4259 66.2651 19.2335C67.0978 19.1225 67.9189 19.2537 68.6637 19.617C69.4086 19.9802 70.0569 20.5654 70.5576 21.3267C70.173 20.1023 69.4851 19.0953 68.5857 18.4399C67.6862 17.7846 66.618 17.5121 65.5236 17.6589V17.6589Z" fill="#FFA245"/>
<path d="M16.3553 75.9414C23.3014 77.398 28.9324 71.4231 28.9324 62.5961C28.9324 53.7692 23.3014 45.4328 16.3553 43.9763C9.40924 42.5198 3.77832 48.4946 3.77832 57.3216C3.77832 66.1485 9.40924 74.4849 16.3553 75.9414Z" fill="#FFE7CE"/>
<path d="M14.5739 72.5797C21.52 74.0362 27.1509 68.0613 27.1509 59.2344C27.1509 50.4074 21.52 42.071 14.5739 40.6145C7.62775 39.158 1.99683 45.1329 1.99683 53.9598C1.99683 62.7867 7.62775 71.1231 14.5739 72.5797Z" fill="#FFF0E2"/>
<path d="M14.7877 62.9354C17.759 63.5584 20.1677 61.0634 20.1677 57.3626C20.1677 53.6618 17.759 50.1566 14.7877 49.5335C11.8164 48.9105 9.40771 51.4055 9.40771 55.1063C9.40771 58.8071 11.8164 62.3123 14.7877 62.9354Z" fill="#FFC080"/>
<path d="M14.7875 49.5335C13.3607 49.2343 11.9923 49.6533 10.9833 50.6984C9.97434 51.7434 9.4075 53.329 9.40747 55.1062C9.40932 56.561 9.79104 58.0552 10.495 59.3632C10.2672 58.5628 10.1501 57.7407 10.1492 56.9362C10.1492 55.1591 10.716 53.5736 11.7249 52.5285C12.7338 51.4835 14.1022 51.0644 15.529 51.3635C16.3617 51.5393 17.1828 51.9535 17.9277 52.5733C18.6725 53.1931 19.3208 54.0017 19.8215 54.9354C19.437 53.5786 18.7491 52.3346 17.8496 51.3694C16.9502 50.4042 15.882 49.7637 14.7875 49.5335V49.5335Z" fill="#FFA245"/>
<path d="M42.4703 77.7516C49.9886 77.7516 56.0834 70.183 56.0834 60.8467C56.0834 51.5103 49.9886 43.9417 42.4703 43.9417C34.952 43.9417 28.8572 51.5103 28.8572 60.8467C28.8572 70.183 34.952 77.7516 42.4703 77.7516Z" fill="#FFE7CE"/>
<path d="M40.5421 74.5909C48.0604 74.5909 54.1552 67.0223 54.1552 57.686C54.1552 48.3496 48.0604 40.781 40.5421 40.781C33.0237 40.781 26.929 48.3496 26.929 57.686C26.929 67.0223 33.0237 74.5909 40.5421 74.5909Z" fill="#FFF0E2"/>
<path d="M40.7735 64.3426C43.9895 64.3426 46.5967 61.1693 46.5967 57.255C46.5967 53.3406 43.9895 50.1673 40.7735 50.1673C37.5574 50.1673 34.9503 53.3406 34.9503 57.255C34.9503 61.1693 37.5574 64.3426 40.7735 64.3426Z" fill="#FFC080"/>
<path d="M40.7736 50.1673C39.2292 50.1673 37.748 50.914 36.656 52.2432C35.5639 53.5723 34.9503 55.3751 34.9503 57.2548C34.9523 58.7932 35.3655 60.289 36.1274 61.5163C35.8809 60.7203 35.7541 59.8767 35.7531 59.026C35.7531 57.1463 36.3666 55.3436 37.4586 54.0145C38.5507 52.6853 40.0317 51.9386 41.5761 51.9385C42.4774 51.9398 43.3661 52.1957 44.1724 52.6861C44.9786 53.1765 45.6803 53.8879 46.2223 54.7645C45.806 53.4146 45.0614 52.2514 44.0879 51.43C43.1144 50.6086 41.9582 50.1681 40.7736 50.1673V50.1673Z" fill="#FFA245"/>
<path d="M68.8027 77.344C75.7488 77.344 81.3798 69.7754 81.3798 60.439C81.3798 51.1027 75.7488 43.5341 68.8027 43.5341C61.8566 43.5341 56.2257 51.1027 56.2257 60.439C56.2257 69.7754 61.8566 77.344 68.8027 77.344Z" fill="#FFE7CE"/>
<path d="M67.0214 74.1833C73.9675 74.1833 79.5984 66.6147 79.5984 57.2783C79.5984 47.942 73.9675 40.3734 67.0214 40.3734C60.0753 40.3734 54.4443 47.942 54.4443 57.2783C54.4443 66.6147 60.0753 74.1833 67.0214 74.1833Z" fill="#FFF0E2"/>
<path d="M67.2348 63.9349C70.2061 63.9349 72.6148 60.7617 72.6148 56.8473C72.6148 52.9329 70.2061 49.7597 67.2348 49.7597C64.2636 49.7597 61.8549 52.9329 61.8549 56.8473C61.8549 60.7617 64.2636 63.9349 67.2348 63.9349Z" fill="#FFC080"/>
<path d="M67.2349 49.7597C65.8081 49.7597 64.4396 50.5064 63.4307 51.8355C62.4217 53.1647 61.8549 54.9674 61.8549 56.8472C61.8567 58.3855 62.2384 59.8813 62.9424 61.1087C62.7146 60.3127 62.5974 59.4691 62.5966 58.6184C62.5966 56.7387 63.1634 54.936 64.1723 53.6068C65.1812 52.2777 66.5495 51.5309 67.9764 51.5309C68.8091 51.5321 69.6302 51.788 70.375 52.2784C71.1199 52.7688 71.7682 53.4803 72.2689 54.3569C71.8844 53.007 71.1964 51.8438 70.297 51.0224C69.3976 50.201 68.3293 49.7605 67.2349 49.7597V49.7597Z" fill="#FFA245"/>
<path d="M71.4836 108.576C79.4701 108.576 85.9444 101.42 85.9444 92.5931C85.9444 83.7661 79.4701 76.6105 71.4836 76.6105C63.4971 76.6105 57.0228 83.7661 57.0228 92.5931C57.0228 101.42 63.4971 108.576 71.4836 108.576Z" fill="#FFE7CE"/>
<path d="M69.4354 105.587C77.4219 105.587 83.8962 98.4318 83.8962 89.6048C83.8962 80.7779 77.4219 73.6223 69.4354 73.6223C61.4489 73.6223 54.9746 80.7779 54.9746 89.6048C54.9746 98.4318 61.4489 105.587 69.4354 105.587Z" fill="#FFF0E2"/>
<path d="M69.6809 95.8983C73.0972 95.8983 75.8667 92.8982 75.8667 89.1974C75.8667 85.4965 73.0972 82.4964 69.6809 82.4964C66.2646 82.4964 63.4951 85.4965 63.4951 89.1974C63.4951 92.8982 66.2646 95.8983 69.6809 95.8983Z" fill="#FFC080"/>
<path d="M69.681 82.4964C68.0404 82.4964 66.467 83.2024 65.307 84.459C64.1469 85.7157 63.4951 87.4201 63.4951 89.1972C63.4972 90.6517 63.9361 92.0658 64.7455 93.2262C64.4836 92.4736 64.3489 91.6761 64.3479 90.8718C64.3479 89.0946 64.9996 87.3903 66.1596 86.1337C67.3197 84.877 68.893 84.171 70.5335 84.171C71.4909 84.1722 72.435 84.4141 73.2914 84.8778C74.1479 85.3414 74.8933 86.014 75.469 86.8428C75.0268 85.5666 74.2359 84.4668 73.2017 83.6902C72.1675 82.9136 70.9393 82.4972 69.681 82.4964V82.4964Z" fill="#FFA245"/>
</svg>
