<svg width="175" height="131" viewBox="0 0 175 131" fill="none" xmlns="http://www.w3.org/2000/svg">
<g clip-path="url(#clip0)">
<path d="M164.871 125.637H0V125.944H164.871V125.637Z" fill="#2F2E41"/>
<path d="M112.792 125.645H43.018L43.0494 118.187C43.1291 99.3137 58.07 83.7625 76.7863 83.4415C76.9885 83.4381 77.1911 83.4364 77.3939 83.4364H77.394C81.6055 83.4332 85.7836 84.19 89.7306 85.6709C102.974 90.6435 111.863 103.277 112.454 117.513L112.792 125.645Z" fill="#FF850A"/>
<path d="M90.139 121.029L87.6236 90.8763L77.5618 86.9311L76.7233 92.2853L79.7977 94.5397L82.8722 121.029H90.139Z" fill="#2F2E41"/>
<path d="M63.8665 83.8314C63.8665 83.8314 63.028 93.4125 66.3819 93.6943C69.7359 93.9761 82.5927 90.8763 82.5927 90.8763L88.7416 112.856L97.965 108.066C97.965 108.066 92.3751 83.2678 89.0211 81.8589C85.6672 80.4499 74.4873 77.6319 74.4873 77.6319L66.3819 79.0409L63.8665 83.8314Z" fill="#2F2E41"/>
<path d="M83.9902 120.465C83.9902 120.465 82.3132 126.946 83.4312 127.51C84.1036 127.849 84.7568 128.225 85.3876 128.637V127.51C85.3876 127.51 86.7851 128.919 86.7851 130.046C86.7851 131.173 94.3315 131.455 94.3315 130.046C94.3315 128.637 94.052 126.946 92.6546 126.101C91.2571 125.255 89.5801 120.465 89.5801 120.465H83.9902Z" fill="#2F2E41"/>
<path d="M94.611 117.647L99.3624 112.293L95.729 106.375L92.0956 108.911L92.6545 114.265L94.611 117.647Z" fill="#2F2E41"/>
<path d="M96.5675 114.265C96.5675 114.265 97.5967 110.718 98.6193 111.083C99.642 111.447 103.555 115.111 103.555 115.111L106.35 116.802C106.35 116.802 111.94 117.365 110.263 119.056C108.586 120.747 102.437 123.001 99.642 121.874C96.847 120.747 96.288 120.465 96.288 120.465L95.4495 121.029L92.0956 120.183L92.6546 114.265C92.6546 114.265 93.4931 116.802 96.5675 114.265Z" fill="#2F2E41"/>
<path d="M73.3693 48.6069C76.9196 48.6069 79.7977 45.7051 79.7977 42.1256C79.7977 38.546 76.9196 35.6443 73.3693 35.6443C69.819 35.6443 66.9409 38.546 66.9409 42.1256C66.9409 45.7051 69.819 48.6069 73.3693 48.6069Z" fill="#9F616A"/>
<path d="M69.3166 45.9298C69.3166 45.9298 69.8756 51.8476 68.1986 51.8476C66.5217 51.8476 68.4781 59.1743 72.9501 59.1743C77.422 59.1743 79.099 50.4386 79.099 50.4386C79.099 50.4386 76.0245 49.3114 76.5835 45.648C77.1425 41.9847 69.3166 45.9298 69.3166 45.9298Z" fill="#9F616A"/>
<path d="M68.8712 51.3962L66.5216 52.4112L60.1449 55.1312C59.8878 55.2409 59.6728 55.4314 59.5318 55.6743C59.3909 55.9173 59.3316 56.1996 59.3628 56.4793L61.7702 78.0546C61.7702 78.0546 59.2547 83.4087 63.1677 83.6905L63.7267 85.6631L68.1986 80.309L84.9684 79.7454L85.2479 52.4112L77.5748 49.3541C77.5748 49.3541 76.5312 55.1717 68.8712 51.3962Z" fill="#3F3D56"/>
<path d="M61.0715 55.9336L60.0386 55.6361C59.9228 55.6027 59.8013 55.5945 59.6821 55.612C59.5629 55.6295 59.4488 55.6722 59.3472 55.7375C59.2456 55.8027 59.1589 55.889 59.0928 55.9905C59.0267 56.092 58.9827 56.2065 58.9638 56.3264L56.2229 73.6607C56.0091 74.9443 56.2138 76.2633 56.8062 77.4198C57.6531 79.0365 59.412 80.5027 63.028 78.7591L65.5434 60.4423L61.0715 55.9336Z" fill="#3F3D56"/>
<path d="M82.0337 51.9885L85.3877 52.5521L94.6111 65.5147L95.4495 67.769L100.76 66.0783C100.76 66.0783 100.48 68.6144 103.275 68.3326C103.275 68.3326 99.9215 77.6319 92.9341 74.814C85.9467 71.996 83.7107 63.5421 83.7107 63.5421L82.0337 51.9885Z" fill="#3F3D56"/>
<path d="M78.6797 59.3151L85.9467 57.6244L73.3693 52.552L72.8104 54.2428L78.6797 59.3151Z" fill="#CCCCCC"/>
<path d="M69.4989 42.5388C69.7363 42.4749 69.7712 42.157 69.7792 41.9094C69.8218 40.5833 70.6138 39.2226 71.8728 38.8365C72.3559 38.703 72.8618 38.6749 73.3565 38.7542C74.0627 38.8491 74.7446 39.0784 75.3658 39.4301C75.6937 39.6159 76.0153 39.8398 76.3873 39.8966C76.6329 39.9341 77.6965 40.2459 77.9411 40.2897C78.4789 40.3862 78.9787 40.8713 79.4947 40.6908C79.9884 40.5181 80.0977 39.8736 80.1096 39.3469C80.1368 38.1469 79.2333 36.486 78.4374 35.5933C77.8335 34.9158 76.9241 34.6031 76.0352 34.4405C74.9968 34.2723 73.9445 34.2077 72.8935 34.2478C71.4709 34.2734 70.0089 34.3841 68.7261 35.0047C67.4433 35.6253 66.3658 36.8605 66.3043 38.2937C66.2915 38.5922 66.322 38.892 66.2971 39.1898C66.2364 39.9162 65.8538 40.5723 65.6743 41.2785C65.546 41.7966 65.5269 42.3361 65.618 42.8622C65.7092 43.3883 65.9087 43.8893 66.2037 44.3328C66.6798 45.0392 68.5836 45.6805 68.5561 46.5341C68.9002 46.1747 68.0887 45.8128 68.4328 45.4534C68.587 45.3347 68.6962 45.1663 68.742 44.9763C68.7879 44.7862 68.7678 44.5861 68.6849 44.4092L68.3196 42.9723C68.2526 42.7091 68.1869 42.4243 68.2879 42.1726C68.6796 41.1967 69.1031 42.6453 69.4989 42.5388H69.4989Z" fill="#2F2E41"/>
<path d="M100.201 72.2777L107.747 49.4523L95.4495 58.4698L72.8104 54.2428L67.4999 75.0957L88.1826 82.4225L100.201 72.2777Z" fill="#F2F2F2"/>
<path d="M73.8242 56.5019L73.7529 56.7743L93.8767 62.1284L93.948 61.856L73.8242 56.5019Z" fill="#E6E6E6"/>
<path d="M73.2653 57.9109L73.194 58.1833L93.3177 63.5374L93.389 63.265L73.2653 57.9109Z" fill="#E6E6E6"/>
<path d="M72.9857 59.3198L72.9144 59.5923L93.0381 64.9464L93.1094 64.674L72.9857 59.3198Z" fill="#E6E6E6"/>
<path d="M72.7062 60.7288L72.6349 61.0013L92.7587 66.3554L92.83 66.083L72.7062 60.7288Z" fill="#E6E6E6"/>
<path d="M72.4267 62.1378L72.3554 62.4102L92.4792 67.7643L92.5505 67.4919L72.4267 62.1378Z" fill="#E6E6E6"/>
<path d="M72.1473 63.5468L72.076 63.8192L92.1997 69.1734L92.271 68.9009L72.1473 63.5468Z" fill="#E6E6E6"/>
<path d="M71.8677 64.9558L71.7964 65.2282L91.9202 70.5823L91.9915 70.3099L71.8677 64.9558Z" fill="#E6E6E6"/>
<path d="M71.5883 66.3648L71.517 66.6372L91.6407 71.9913L91.712 71.7189L71.5883 66.3648Z" fill="#E6E6E6"/>
<path d="M71.3088 67.7737L71.2375 68.0462L91.3612 73.4003L91.4325 73.1279L71.3088 67.7737Z" fill="#E6E6E6"/>
<path d="M64.2883 69.5821C64.2883 69.5821 70.5744 65.7965 73.3694 68.3327C76.1643 70.8688 65.264 74.5322 65.264 74.5322L64.2883 69.5821Z" fill="#9F616A"/>
<path d="M57.438 71.4324L65.5434 68.3326C65.5434 68.3326 64.1459 73.6868 66.9409 73.9686L63.0279 78.7591C63.0279 78.7591 55.202 78.7591 57.438 71.4324Z" fill="#3F3D56"/>
<path d="M76.2218 76.9108L78.7672 71.3168L89.5226 74.9715L86.9772 80.5654L76.2218 76.9108Z" fill="#E6E6E6"/>
<path d="M95.3098 67.0646L97.8252 59.4561L105.931 53.2565L103.695 60.8651L95.3098 67.0646Z" fill="#CCCCCC"/>
<path d="M101.933 63.5708L93.8277 69.7701L93.9967 69.9947L102.102 63.7954L101.933 63.5708Z" fill="#E6E6E6"/>
<path d="M101.374 66.6706L93.2688 72.8699L93.4377 73.0944L101.543 66.8952L101.374 66.6706Z" fill="#E6E6E6"/>
<path d="M102.437 68.6144C102.437 68.6144 109.424 64.3875 104.952 62.6967C100.48 61.0059 100.48 67.4872 100.48 67.4872C100.48 67.4872 100.201 68.8962 102.437 68.6144Z" fill="#9F616A"/>
<path opacity="0.1" d="M62.0497 69.0371L61.4908 59.1743L61.2112 70.1644L65.5434 68.9179L62.0497 69.0371Z" fill="black"/>
<path d="M144.717 117.022H147.601V123.24H144.717V117.022Z" fill="#FBBEBE"/>
<path d="M122.262 117.229H125.146V123.447H122.262V117.229Z" fill="#FBBEBE"/>
<path d="M121.953 120.234L125.455 119.82L134.519 77.7463L144.407 120.027L147.91 119.613C148.487 100.481 146.799 81.3421 145.334 65.4144L124.425 63.6527C120.486 79.3479 120.324 98.8815 121.953 120.234Z" fill="#2F2E41"/>
<path d="M124.128 66.1419C124.128 66.1419 128.998 71.2547 126.245 72.5329C123.493 73.8111 121.799 66.781 121.799 66.781L124.128 66.1419Z" fill="#FBBEBE"/>
<path d="M149.054 66.5564C149.054 66.5564 153.924 71.6692 151.171 72.9474C148.419 74.2256 146.725 67.1955 146.725 67.1955L149.054 66.5564Z" fill="#FBBEBE"/>
<path d="M134.21 29.5586C131.025 29.5586 128.442 26.9604 128.442 23.7553C128.442 20.5503 131.025 17.9521 134.21 17.9521C137.396 17.9521 139.978 20.5503 139.978 23.7553C139.978 26.9604 137.396 29.5586 134.21 29.5586Z" fill="#FBBEBE"/>
<path d="M127.515 35.88L137.815 36.9163C136.863 32.6042 136.633 28.5756 137.815 25.1025H130.605C130.997 27.9965 129.533 31.8022 127.515 35.88Z" fill="#FBBEBE"/>
<path d="M124.631 65.9325C128.48 70.5903 136.568 69.033 145.849 65.7252C143.216 57.0757 143.624 47.9501 145.991 38.5182C146.12 38.0113 146.067 37.4748 145.84 37.0035C145.614 36.5323 145.23 36.1568 144.755 35.9432L137.197 32.5638L134.313 33.1856L129.369 31.942L122.351 33.3863C121.781 33.5038 121.271 33.8232 120.914 34.2865C120.557 34.7498 120.377 35.3263 120.407 35.9116C120.994 47.4884 122.032 58.2023 124.631 65.9325Z" fill="#E6E6E6"/>
<path d="M122.571 69.6632L124.425 66.5543L120.923 53.2897L122.777 33.3929C121.581 33.5132 120.454 34.013 119.559 34.8201C118.664 35.6271 118.047 36.6996 117.798 37.8826L114.985 51.2232C114.561 53.2342 114.816 55.33 115.709 57.1791L122.571 69.6632Z" fill="#E6E6E6"/>
<path d="M146.674 67.3833L150.897 68.1087L148.204 41.5871C148.178 40.2637 147.765 38.9773 147.016 37.8886C146.268 36.7999 145.217 35.9571 143.996 35.4655L142.656 52.9788L146.674 67.3833Z" fill="#E6E6E6"/>
<path d="M145.813 125.412L153.586 126.786C153.939 126.848 154.302 126.799 154.626 126.645C154.883 126.523 155.106 126.34 155.275 126.111C155.445 125.883 155.556 125.616 155.599 125.334C155.642 125.052 155.616 124.763 155.523 124.494C155.429 124.225 155.271 123.982 155.063 123.789L151.733 120.689L150.865 119.163C150.621 118.721 150.273 118.346 149.851 118.071C149.429 117.796 148.946 117.63 148.445 117.587C146.961 117.484 146.471 118.62 146.781 120.755C145.654 121.589 145.476 121.461 144.717 120.338L144.372 123.856C144.411 124.238 144.573 124.597 144.833 124.877C145.093 125.158 145.437 125.346 145.813 125.412Z" fill="#2F2E41"/>
<path d="M123.359 125.412L131.132 126.786C131.485 126.848 131.848 126.799 132.172 126.645C132.429 126.523 132.651 126.34 132.821 126.111C132.991 125.883 133.102 125.616 133.145 125.334C133.188 125.052 133.162 124.763 133.068 124.494C132.975 124.225 132.817 123.982 132.609 123.789L129.279 120.689L128.411 119.163C128.167 118.721 127.818 118.346 127.396 118.071C126.975 117.796 126.492 117.63 125.991 117.587C124.507 117.484 124.017 118.62 124.327 120.755C123.2 121.589 123.021 121.461 122.262 120.338L121.918 123.856C121.957 124.238 122.119 124.597 122.379 124.877C122.639 125.158 122.983 125.346 123.359 125.412Z" fill="#2F2E41"/>
<path d="M138.79 20.4488C136.19 18.9522 133.587 19.9084 130.979 23.9917L130.446 28.3415C126.531 24.6108 126.729 19.5197 131.119 17.4489C131.55 17.2454 131.968 17.0138 132.438 17.0957C133.366 16.5945 134.449 16.4685 135.467 16.7434C136.484 17.0184 137.359 17.6736 137.912 18.5752C138.723 18.7165 139.886 20.3375 139.844 21.1645L138.79 20.4488Z" fill="#2F2E41"/>
<path d="M131.223 24.9989C130.825 24.9989 130.502 24.5813 130.502 24.0662C130.502 23.5511 130.825 23.1335 131.223 23.1335C131.622 23.1335 131.944 23.5511 131.944 24.0662C131.944 24.5813 131.622 24.9989 131.223 24.9989Z" fill="#FBBEBE"/>
<path d="M160.688 47.5515H155.18C155.18 48.1316 155.409 48.688 155.817 49.0982C156.225 49.5084 156.778 49.7388 157.354 49.7388H158.514C159.09 49.7388 159.643 49.5084 160.051 49.0982C160.459 48.688 160.688 48.1316 160.688 47.5515H160.688Z" fill="#45855D"/>
<path d="M153.893 42.6541V40.6214C153.893 38.1653 151.238 35.842 149.516 34.1845C147.088 31.8495 145.812 28.7123 145.812 25.0374C145.812 21.8086 147.084 18.7116 149.35 16.4253C151.617 14.1391 154.691 12.8502 157.9 12.8412C161.11 12.8322 164.191 14.1039 166.47 16.3774C168.749 18.6509 170.038 21.7408 170.056 24.9695C170.056 24.9921 170.056 25.0147 170.056 25.0374C170.056 28.581 168.725 31.9308 166.352 34.1845C164.639 35.8115 161.975 38.1398 161.975 40.6214V42.6541" fill="#329F5B"/>
<path d="M153.893 42.9394C153.93 42.9394 153.967 42.9321 154.002 42.9177C154.036 42.9034 154.067 42.8824 154.094 42.8559C154.12 42.8294 154.141 42.7979 154.155 42.7633C154.169 42.7287 154.177 42.6916 154.177 42.6541V40.6214C154.177 38.2319 151.835 36.0013 150.124 34.3726C149.982 34.2373 149.844 34.1059 149.712 33.9784C147.346 31.7028 146.095 28.6111 146.095 25.0374C146.095 18.3584 151.295 13.1264 157.934 13.1264C157.945 13.1264 157.956 13.1264 157.967 13.1264C161.092 13.1299 164.087 14.3778 166.299 16.5973C168.512 18.8167 169.76 21.8271 169.773 24.9703V25.0368C169.773 28.5367 168.455 31.7951 166.158 33.9771C166.041 34.0877 165.92 34.2016 165.796 34.3184C164.064 35.9503 161.691 38.1851 161.691 40.6214V42.6541C161.691 42.7298 161.721 42.8024 161.774 42.8559C161.827 42.9094 161.9 42.9394 161.975 42.9394C162.05 42.9394 162.122 42.9094 162.175 42.8559C162.228 42.8024 162.258 42.7298 162.258 42.6541V40.6214C162.258 38.4326 164.527 36.2955 166.184 34.735C166.309 34.6176 166.43 34.5031 166.547 34.3921C168.957 32.1027 170.34 28.6931 170.34 25.0374V24.9689C170.321 18.1172 164.774 12.5558 157.968 12.5558C157.956 12.5558 157.945 12.5558 157.933 12.5558C156.302 12.5473 154.685 12.8643 153.176 13.4886C151.667 14.1128 150.296 15.0319 149.142 16.1926C147.989 17.3534 147.075 18.7327 146.455 20.2509C145.835 21.7691 145.52 23.3959 145.528 25.0374C145.528 28.7706 146.839 32.005 149.32 34.3909C149.453 34.5189 149.592 34.6511 149.734 34.787C151.37 36.3445 153.61 38.4775 153.61 40.6214V42.6541C153.61 42.6916 153.617 42.7287 153.631 42.7633C153.646 42.7979 153.666 42.8294 153.693 42.8559C153.719 42.8824 153.75 42.9034 153.785 42.9177C153.819 42.9321 153.856 42.9394 153.893 42.9394Z" fill="#45855D"/>
<path d="M155.24 46.6004H160.628C160.753 46.6004 160.873 46.5503 160.962 46.4612C161.051 46.372 161.101 46.251 161.101 46.1249C161.101 45.9988 161.051 45.8779 160.962 45.7887C160.873 45.6995 160.753 45.6494 160.628 45.6494H155.24C155.115 45.6494 154.995 45.6995 154.906 45.7887C154.817 45.8779 154.768 45.9988 154.768 46.1249C154.768 46.251 154.817 46.372 154.906 46.4612C154.995 46.5503 155.115 46.6004 155.24 46.6004Z" fill="#329F5B"/>
<path d="M170.468 13.8285C170.583 13.8286 170.693 13.7869 170.779 13.7112L174.838 10.1466C174.885 10.1056 174.923 10.0556 174.951 9.99969C174.978 9.94373 174.995 9.88285 174.999 9.82051C175.003 9.75817 174.995 9.69561 174.975 9.63639C174.955 9.57718 174.924 9.52247 174.883 9.4754C174.843 9.42833 174.793 9.38982 174.737 9.36208C174.682 9.33433 174.621 9.31788 174.559 9.31368C174.497 9.30948 174.435 9.31761 174.376 9.3376C174.317 9.35759 174.263 9.38905 174.216 9.43019L170.157 12.9948C170.085 13.0584 170.033 13.1429 170.01 13.2367C169.986 13.3306 169.992 13.4294 170.026 13.5201C170.06 13.6107 170.12 13.6888 170.199 13.7439C170.278 13.799 170.372 13.8285 170.468 13.8285H170.468Z" fill="#E6E6E6"/>
<path d="M146.073 13.8285C146.169 13.8285 146.263 13.799 146.342 13.7439C146.421 13.6888 146.482 13.6107 146.516 13.5201C146.55 13.4294 146.555 13.3306 146.532 13.2367C146.508 13.1429 146.457 13.0584 146.384 12.9948L142.325 9.43019C142.231 9.34739 142.108 9.30571 141.983 9.31429C141.858 9.32288 141.741 9.38104 141.659 9.47598C141.576 9.57093 141.535 9.6949 141.543 9.82065C141.552 9.9464 141.609 10.0636 141.704 10.1466L145.762 13.7112C145.848 13.7869 145.959 13.8286 146.073 13.8285Z" fill="#E6E6E6"/>
<path d="M153.893 44.9126H161.975C162.1 44.9126 162.22 44.8625 162.309 44.7734C162.398 44.6842 162.447 44.5632 162.447 44.4371C162.447 44.311 162.398 44.1901 162.309 44.1009C162.22 44.0117 162.1 43.9616 161.975 43.9616H153.893C153.768 43.9616 153.648 44.0117 153.559 44.1009C153.47 44.1901 153.421 44.311 153.421 44.4371C153.421 44.5632 153.47 44.6842 153.559 44.7734C153.648 44.8625 153.768 44.9126 153.893 44.9126Z" fill="#329F5B"/>
<path d="M157.934 43.1297C157.996 43.1297 158.058 43.1174 158.115 43.0935C158.172 43.0696 158.224 43.0345 158.268 42.9904C158.312 42.9462 158.347 42.8938 158.371 42.8361C158.394 42.7784 158.407 42.7166 158.407 42.6541V31.8131C158.407 31.6869 158.357 31.566 158.268 31.4768C158.18 31.3876 158.059 31.3375 157.934 31.3375C157.809 31.3375 157.688 31.3876 157.6 31.4768C157.511 31.566 157.461 31.6869 157.461 31.8131V42.6541C157.461 42.7166 157.474 42.7784 157.497 42.8361C157.521 42.8938 157.556 42.9462 157.6 42.9904C157.644 43.0345 157.696 43.0696 157.753 43.0935C157.811 43.1174 157.872 43.1297 157.934 43.1297Z" fill="white"/>
<path d="M157.934 32.2886C159.461 32.2886 161.336 30.8986 161.415 30.8395C161.516 30.7642 161.582 30.6518 161.601 30.527C161.619 30.4022 161.587 30.2753 161.512 30.1741C161.437 30.0729 161.326 30.0058 161.202 29.9875C161.078 29.9691 160.951 30.0011 160.851 30.0764C160.381 30.427 158.941 31.3375 157.934 31.3375C156.927 31.3375 155.487 30.427 155.017 30.0762C154.916 30.001 154.79 29.969 154.666 29.9874C154.542 30.0058 154.43 30.0729 154.356 30.1741C154.281 30.2754 154.249 30.4023 154.267 30.5271C154.286 30.6518 154.352 30.7642 154.453 30.8395C154.532 30.8986 156.407 32.2886 157.934 32.2886Z" fill="white"/>
<path d="M157.934 9.08187C158.059 9.08186 158.18 9.03176 158.268 8.94259C158.357 8.85341 158.407 8.73246 158.407 8.60635V0.475515C158.407 0.3494 158.357 0.228451 158.268 0.139275C158.18 0.0500987 158.059 0 157.934 0C157.809 0 157.688 0.0500987 157.6 0.139275C157.511 0.228451 157.461 0.3494 157.461 0.475515V8.60635C157.461 8.73246 157.511 8.85341 157.6 8.94259C157.688 9.03176 157.809 9.08186 157.934 9.08187Z" fill="#E6E6E6"/>
<path d="M33.3015 28.0717L23.3332 24.156L16.718 34.7342L28.3759 37.4182L33.3015 28.0717Z" fill="#2F2E41"/>
<path d="M22.9119 85.0483C22.9119 85.0483 19.1645 93.6885 19.1645 96.202C19.1645 96.202 20.6479 103.036 20.1794 104.921L18.5399 108.455L15.1048 107.042L14.168 97.6159L14.3241 82.5348L22.9119 85.0483Z" fill="#FFB9B9"/>
<path d="M25.0198 33.3643C25.0198 33.3643 25.3321 38.5484 24.7075 40.1193C24.0829 41.6903 27.0496 44.6751 27.0496 44.6751L31.7339 38.5484C31.7339 38.5484 28.6111 35.4065 29.3918 31.9504L25.0198 33.3643Z" fill="#FFB9B9"/>
<path d="M15.261 69.2603C15.261 69.2603 10.7328 77.7434 15.1048 77.115C19.4768 76.4867 17.9934 69.0247 17.9934 69.0247" fill="#E6E6E6"/>
<path d="M17.9934 69.0247L19.4767 54.1793L19.3987 45.1464L15.9635 45.7746V54.1006L15.261 69.2603" fill="#FFB9B9"/>
<path d="M14.246 105.942L20.9601 103.271L21.7408 116.624C21.7408 116.624 23.1461 120.709 22.6777 122.28C22.6777 122.28 22.99 124.95 22.2093 125.107C21.4285 125.264 19.2426 125.579 19.0864 125.422C18.9303 125.265 18.9303 124.793 18.9303 124.793C18.9303 124.793 17.3688 125.893 17.2127 127.15C17.2127 127.15 10.6547 129.192 10.4986 127.307C10.3425 125.422 13.7776 123.851 13.7776 123.851L16.432 119.766L14.246 105.942Z" fill="#2F2E41"/>
<path d="M36.8866 85.0483C36.8866 85.0483 33.1392 93.6885 33.1392 96.202C33.1392 96.202 34.6225 103.036 34.1541 104.921L32.5146 108.455L29.0795 107.042L28.1427 97.6159L28.2988 82.5348L36.8866 85.0483Z" fill="#FFB9B9"/>
<path d="M28.4549 105.942L35.169 103.271L35.9497 116.624C35.9497 116.624 37.355 120.709 36.8866 122.28C36.8866 122.28 37.1989 124.95 36.4181 125.107C35.6374 125.264 33.4514 125.579 33.2953 125.422C33.1392 125.264 33.1392 124.793 33.1392 124.793C33.1392 124.793 31.5777 125.893 31.4216 127.15C31.4216 127.15 24.8636 129.192 24.7075 127.307C24.5514 125.422 27.9865 123.851 27.9865 123.851L30.6409 119.766L28.4549 105.942Z" fill="#2F2E41"/>
<path d="M31.5788 29.7519C31.5783 30.989 31.1244 32.1825 30.304 33.104C29.4835 34.0255 28.3542 34.6103 27.132 34.7464C25.9098 34.8826 24.6807 34.5606 23.6797 33.842C22.6788 33.1234 21.9763 32.0588 21.7067 30.8517C21.6246 30.491 21.5835 30.122 21.5844 29.7519C21.5853 28.419 22.1121 27.141 23.0492 26.1988C23.9863 25.2566 25.2568 24.7274 26.5816 24.7274C27.9064 24.7274 29.177 25.2566 30.1141 26.1988C31.0511 27.141 31.578 28.419 31.5788 29.7519Z" fill="#FFB9B9"/>
<path d="M27.2058 39.8051L31.0832 37.7793L32.8269 39.1768C32.8269 39.1768 37.0427 39.0197 38.6042 40.9048C40.1656 42.7899 41.0244 47.5813 41.0244 47.5813C41.0244 47.5813 35.8717 46.4816 36.4962 50.8803L35.5594 48.3668L34.7006 50.4876L24.2391 54.1007L19.5548 46.0889C19.5548 46.0889 16.432 45.1463 15.339 47.3457C15.339 47.3457 15.5732 39.4124 18.618 39.1768C20.6657 39.0183 22.2093 39.0197 22.2093 39.0197L23.9268 38.7055L25.0267 38.3127L27.2058 39.8051Z" fill="#E94F37"/>
<path d="M33.8418 57.007C33.8418 57.007 42.0393 81.7494 39.6972 85.2054C39.6972 85.2054 30.9532 89.6041 13.4653 83.6345L20.5698 55.9073C24.9337 55.0094 29.3578 55.376 33.8418 57.007Z" fill="#2F2E41"/>
<path d="M33.8418 57.007L36.1489 49.0304C33.3814 46.0023 35.77 39.2877 35.77 39.2877L32.4307 38.5678C32.4307 38.5678 29.0795 47.6599 25.6444 46.5602C22.2093 45.4605 24.083 38.3913 24.083 38.3913L20.9601 38.7055L19.5549 44.2038L20.5698 55.9073C24.8025 55.5421 29.2417 55.9671 33.8418 57.007Z" fill="#2F2E41"/>
<path d="M37.9014 69.0247L38.9945 54.1006L39.3068 45.1464L35.8718 45.7746V54.1006L35.169 69.2603" fill="#FFB9B9"/>
<path d="M35.1691 69.2603C35.1691 69.2603 30.6409 77.7434 35.0129 77.115C39.3849 76.4867 37.9015 69.0247 37.9015 69.0247" fill="white"/>
<path d="M41.0244 47.5813C41.0244 47.5813 40.4693 39.5136 35.8284 39.5415V48.8715C35.8284 48.8715 39.3068 46.7958 41.0244 47.5813Z" fill="#E94F37"/>
<path d="M28.1794 31.0491C28.153 31.0491 28.1272 31.0409 28.1057 31.0255C28.0841 31.0102 28.0678 30.9885 28.0591 30.9634C28.0503 30.9383 28.0496 30.9111 28.0568 30.8856C28.0641 30.86 28.0791 30.8374 28.0998 30.8208L30.6481 28.7697C30.6611 28.7591 30.6761 28.7511 30.6922 28.7464C30.7084 28.7416 30.7253 28.7401 30.742 28.7419C30.7587 28.7437 30.7749 28.7488 30.7896 28.7569C30.8043 28.7651 30.8173 28.7761 30.8278 28.7893C30.8383 28.8025 30.8461 28.8176 30.8508 28.8339C30.8554 28.8501 30.8568 28.8671 30.8549 28.8839C30.853 28.9007 30.8478 28.917 30.8397 28.9318C30.8315 28.9465 30.8205 28.9595 30.8073 28.97L28.259 31.0211C28.2364 31.0393 28.2083 31.0491 28.1794 31.0491Z" fill="white"/>
<path d="M28.3722 34.1257C28.3162 34.195 28.2601 34.2642 28.2015 34.3283C27.5254 34.6367 26.7895 34.7897 26.0472 34.7761C25.3049 34.7625 24.575 34.5828 23.9105 34.2498C23.2459 33.9169 22.6635 33.4391 22.2054 32.8513C21.7474 32.2635 21.4253 31.5805 21.2625 30.8517L23.6771 30.4048L28.3722 30.8517C27.2969 32.1695 27.4268 32.6259 28.3722 34.1257Z" fill="white"/>
<path d="M23.7601 22.7149C23.7601 22.7149 21.1776 23.2036 20.5804 26.4441C20.487 26.9906 20.47 27.5475 20.5298 28.0988C20.5895 28.7225 20.503 30.04 19.1568 31.5913C18.2784 32.5974 17.4599 33.655 16.7057 34.7583L19.4042 35.4811L20.6098 30.9829C21.1944 28.8021 22.0949 26.7198 23.2824 24.8029L23.3071 24.7629C23.3071 24.7629 24.2034 27.1723 26.6056 27.5026L25.8649 26.5214C25.8649 26.5214 28.6731 28.1547 30.2641 28.6536C30.4457 28.7106 30.6083 28.8163 30.7346 28.9594C30.8609 29.1025 30.9459 29.2776 30.9806 29.4657C31.0153 29.6539 30.9984 29.848 30.9315 30.0271C30.8647 30.2063 30.7506 30.3637 30.6014 30.4824C30.5901 30.4914 30.5786 30.5003 30.5669 30.5093C29.3967 31.4035 27.0094 33.5372 27.9526 35.6013C28.8957 37.6655 27.7958 38.0418 27.7958 38.0418L29.824 37.2655L30.7523 36.8656L30.6585 37.5561L35.19 37.6516C35.19 37.6516 36.4146 37.6441 34.2395 34.3555C34.2395 34.3555 33.7146 33.1224 34.1455 32.1803C34.4913 31.4669 34.6635 30.681 34.6478 29.8874C34.5108 26.5718 33.1225 19.8266 23.7601 22.7149Z" fill="#2F2E41"/>
</g>
<defs>
<clipPath id="clip0">
<rect width="175" height="131" fill="white"/>
</clipPath>
</defs>
</svg>
