<svg width="176" height="113" viewBox="0 0 176 113" fill="none" xmlns="http://www.w3.org/2000/svg">
<g clip-path="url(#clip0)">
<path d="M24.3346 5.66565H19.6283V9.39223H24.3346V5.66565Z" fill="#B3CCF1"/>
<path d="M19.3693 9.18661C17.9889 9.18661 16.8455 9.48442 16.5606 9.88531L16.4884 10.0809V11.7019V12.4938C14.6268 12.7628 13.1653 13.7236 12.755 14.9601C12.714 15.1958 12.6748 15.4323 12.6339 15.6681V21.5744V24.8326H17.5364H26.4261H31.3285V21.5744V15.6681L31.2074 14.9601C30.7971 13.7236 29.3357 12.7628 27.4741 12.4938V11.7019V10.0809L27.4019 9.88531C27.1169 9.4842 25.9735 9.18661 24.5932 9.18661H19.3693Z" fill="#72A1E5"/>
<path d="M12.0735 24.3058H31.8894C38.4954 24.3058 43.8137 29.6241 43.8137 36.2302V99.7105C43.8137 106.317 38.4954 111.635 31.8894 111.635H12.0735C5.46742 111.635 0.14917 106.317 0.14917 99.7105V36.2302C0.14917 29.6241 5.46742 24.3058 12.0735 24.3058Z" fill="#B3CCF1"/>
<path d="M19.7166 2.25896e-07C16.4552 0.000360772 13.8114 2.64426 13.811 5.90559H19.7166H34.7878C36.4196 5.90626 37.7427 4.58311 37.742 2.95128C37.741 1.32057 36.4185 -0.00063073 34.7878 2.25896e-07H19.7166Z" fill="#72A1E5"/>
<path d="M43.8137 47.5145V99.7106C43.8137 106.317 38.4954 111.635 31.8894 111.635H12.0735C5.46742 111.635 0.14917 106.317 0.14917 99.7106V47.5145C14.704 52.4852 29.2588 41.403 43.8137 47.5145Z" fill="#5C93E1"/>
<path d="M13.997 23.5097C14.3282 23.5097 14.5967 21.6905 14.5967 19.4464C14.5967 17.2023 14.3282 15.3831 13.997 15.3831C13.6657 15.3831 13.3972 17.2023 13.3972 19.4464C13.3972 21.6905 13.6657 23.5097 13.997 23.5097Z" fill="#B3CCF1"/>
<path d="M9.73114 91.7796C11.8818 91.7796 13.6253 90.0361 13.6253 87.8855C13.6253 85.7348 11.8818 83.9914 9.73114 83.9914C7.58049 83.9914 5.83704 85.7348 5.83704 87.8855C5.83704 90.0361 7.58049 91.7796 9.73114 91.7796Z" fill="#B3CCF1"/>
<path d="M14.9899 98.4802C16.2505 98.4802 17.2724 97.4583 17.2724 96.1977C17.2724 94.937 16.2505 93.9151 14.9899 93.9151C13.7292 93.9151 12.7073 94.937 12.7073 96.1977C12.7073 97.4583 13.7292 98.4802 14.9899 98.4802Z" fill="#B3CCF1"/>
<path d="M13.0814 104.841C13.9439 104.841 14.643 104.142 14.643 103.28C14.643 102.417 13.9439 101.718 13.0814 101.718C12.2189 101.718 11.5198 102.417 11.5198 103.28C11.5198 104.142 12.2189 104.841 13.0814 104.841Z" fill="#B3CCF1"/>
<path d="M17.1951 81.4318C18.971 81.4318 20.4106 79.9922 20.4106 78.2163C20.4106 76.4404 18.971 75.0007 17.1951 75.0007C15.4191 75.0007 13.9795 76.4404 13.9795 78.2163C13.9795 79.9922 15.4191 81.4318 17.1951 81.4318Z" fill="#B3CCF1"/>
<path d="M61.7932 73.148C60.6847 72.8901 59.5965 71.6476 60.3755 71.1132C61.7082 70.199 61.7873 72.6139 66.1316 72.3091C70.406 72.0091 81.9053 73.4073 77.8116 74.1739C73.8191 74.1514 66.1348 74.1582 61.7932 73.148Z" fill="#B3CCF1"/>
<path d="M84.3832 102.131C81.6115 101.088 78.0969 100.469 74.6599 100.312C71.223 100.156 67.8637 100.461 65.4028 101.266C62.9419 102.071 61.8378 103.225 62.0419 104.439C62.246 105.653 63.7582 106.926 66.5299 107.97C69.3053 109.015 72.8232 109.635 76.2626 109.792C79.702 109.95 83.0627 109.645 85.5236 108.84C87.9845 108.035 89.0875 106.881 88.8812 105.666C88.6749 104.451 87.1593 103.176 84.3832 102.131Z" fill="#88AFE9" stroke="#88AFE9" stroke-width="4.87567"/>
<path d="M105.633 95.182C100.499 93.2493 94.3897 91.7215 87.8805 90.6897C81.3714 89.6579 74.4621 89.1222 67.7275 89.1736C66.9265 89.1798 66.2708 89.3033 65.8576 89.4979C65.4444 89.6926 65.2736 89.9584 65.4424 90.2494C65.5106 90.3665 65.6288 90.4786 65.7872 90.583C65.9456 90.6873 66.1443 90.784 66.3733 90.8703C66.7132 90.9982 67.1201 91.1027 67.5616 91.1743C68.0031 91.2459 68.4791 91.2847 68.9574 91.2811C74.8612 91.2357 80.7962 91.6859 86.3801 92.5709C91.964 93.4559 97.1968 94.7756 101.696 96.4694C105.995 98.0877 109.289 99.9308 111.431 101.866C113.573 103.801 114.562 105.828 114.252 107.815C114.207 108.098 114.499 108.382 115.005 108.613C115.512 108.844 116.234 109.021 117.052 109.091C117.87 109.16 118.627 109.109 119.191 108.97C119.756 108.83 120.127 108.603 120.172 108.32C120.532 106.019 119.386 103.672 116.906 101.431C114.426 99.1903 110.612 97.0562 105.633 95.182Z" fill="#88AFE9" stroke="#88AFE9" stroke-width="4.87567"/>
<path d="M123.882 89.2137C115.946 86.2263 106.687 83.8386 96.7834 82.1656C86.8797 80.4926 76.3313 79.5342 65.8169 79.4053C65.0083 79.3952 64.327 79.5042 63.8792 79.6883C63.4313 79.8725 63.2169 80.1318 63.342 80.4226C63.3974 80.55 63.5133 80.673 63.6774 80.7875C63.8415 80.902 64.0538 81.008 64.3021 81.1014C64.6213 81.2216 65 81.3212 65.4125 81.3923C65.825 81.4634 66.2713 81.5059 66.7255 81.5117C76.3642 81.6303 86.0329 82.5085 95.1105 84.0417C104.188 85.5749 112.674 87.763 119.948 90.5013C127.001 93.1564 132.519 96.1876 136.248 99.3765C139.976 102.565 141.914 105.912 141.807 109.198C141.798 109.483 142.122 109.765 142.652 109.989C143.183 110.214 143.92 110.382 144.737 110.44C145.556 110.497 146.3 110.434 146.843 110.285C147.385 110.136 147.725 109.901 147.734 109.615C147.851 106.03 145.736 102.378 141.668 98.8985C137.6 95.4188 131.579 92.1111 123.882 89.2137Z" fill="#88AFE9" stroke="#88AFE9" stroke-width="4.87567"/>
<path d="M172.117 110.791C172.044 106.06 169.088 101.246 163.621 96.6635C158.155 92.0807 150.178 87.729 140.066 83.9224C129.74 80.0353 117.689 76.8954 104.794 74.6559C91.8991 72.4164 78.1614 71.0773 64.4635 70.7918C63.6523 70.7748 62.9606 70.8773 62.4981 71.0566C62.0356 71.2359 61.8023 71.4921 61.908 71.7824C61.9558 71.9144 62.0697 72.0419 62.2361 72.1608C62.4025 72.2796 62.6214 72.3897 62.8793 72.4867C63.1889 72.6033 63.5551 72.7008 63.9549 72.7715C64.3165 72.8354 64.7056 72.8774 65.105 72.8917C65.1471 72.8932 65.1894 72.8944 65.2318 72.8953C78.0769 73.1628 90.9601 74.4186 103.053 76.5187C115.145 78.6188 126.448 81.5633 136.13 85.2083C145.614 88.7783 153.094 92.8596 158.221 97.1577C163.348 101.456 166.121 105.971 166.189 110.407C166.194 110.694 166.529 110.974 167.069 111.197C167.608 111.419 168.35 111.582 169.168 111.635C169.986 111.688 170.725 111.62 171.259 111.468C171.793 111.315 172.121 111.077 172.117 110.791Z" fill="#88AFE9" stroke="#88AFE9" stroke-width="4.87567"/>
<path d="M72.3017 73.8828C76.7077 74.1019 80.3199 73.9146 80.3697 73.4645C80.4195 73.0144 76.8881 72.4718 72.4821 72.2527C68.0761 72.0336 64.464 72.2209 64.4142 72.6711C64.3644 73.1212 67.8958 73.6637 72.3017 73.8828Z" fill="#B3CCF1"/>
<path d="M70.2849 82.3426C73.3568 82.5393 75.8752 82.3336 75.9099 81.8832C75.9447 81.4329 73.4826 80.9083 70.4107 80.7116C67.3388 80.5149 64.8204 80.7207 64.7856 81.1711C64.7509 81.6214 67.213 82.1459 70.2849 82.3426Z" fill="#B3CCF1"/>
<path d="M69.0132 92.0215C70.6689 92.1944 72.0263 91.9692 72.045 91.5185C72.0637 91.0679 70.7367 90.5625 69.081 90.3896C67.4252 90.2167 66.0678 90.4419 66.0491 90.8926C66.0304 91.3432 67.3575 91.8487 69.0132 92.0215Z" fill="#B3CCF1"/>
<path d="M111.852 105.36C111.543 105.996 111.355 103.86 108.957 101.866C106.56 99.8711 102.711 98.3988 103.021 97.763C103.33 97.1273 108.646 99.024 111.044 101.019C113.442 103.013 112.161 104.724 111.852 105.36Z" fill="#B3CCF1"/>
<path d="M137.904 102.388C137.539 103.143 135.237 100.759 132.406 98.3916C129.575 96.0243 125.032 94.2771 125.397 93.5225C125.762 92.7679 132.039 95.0185 134.869 97.3858C137.7 99.7531 138.27 101.633 137.904 102.388Z" fill="#B3CCF1"/>
<path d="M160.773 100.191C160.315 101.094 157.43 98.2386 153.883 95.4025C150.336 92.5664 144.642 90.471 145.1 89.5681C145.558 88.6652 153.423 91.3648 156.97 94.2009C160.517 97.037 161.231 99.2883 160.773 100.191Z" fill="#B3CCF1"/>
<path d="M83.5256 90.6953C82.9926 91.5962 80.6547 90.3143 79.2305 90.0868C77.0785 89.7427 73.1094 89.4675 72.8132 88.9409C72.5169 88.4141 77.3044 88.4611 79.4375 88.8837C80.9958 89.1928 84.1165 89.6966 83.5257 90.695L83.5256 90.6953Z" fill="#B3CCF1"/>
<path d="M81.4948 79.8317C81.605 80.1025 80.3874 79.8375 78.4836 79.9847C76.5799 80.1316 74.7109 80.0929 74.6008 79.8221C74.4908 79.5514 75.9449 79.2129 77.8485 79.066C79.7522 78.9191 81.3847 79.5613 81.4948 79.8319V79.8317Z" fill="#B3CCF1"/>
<path d="M91.4077 72.3273C91.358 72.7774 88.7119 72.1222 84.306 71.9034C79.9002 71.6842 78.1899 71.1956 78.2396 70.7455C78.2893 70.2954 79.9688 70.8419 84.3749 71.0611C88.7809 71.2803 91.4575 71.8779 91.4076 72.328L91.4077 72.3273Z" fill="#B3CCF1"/>
</g>
<defs>
<clipPath id="clip0">
<rect width="175.702" height="112.98" fill="white" transform="translate(0.14917)"/>
</clipPath>
</defs>
</svg>
